<svg id="Layer_1" data-name="Layer 1" xmlns="http://www.w3.org/2000/svg" viewBox="0 0 227.42 229.36"><defs><style>.cls-1{fill:#fff;}</style></defs><title>problema-abordata-alb</title><path class="cls-1" d="M210.06,167a28.63,28.63,0,0,0-20.68,8.86l-.8.83-32.83-27.36.73-1a39,39,0,0,0-1.83-49.14l-.83-1L171,83.48l.8.55a20.91,20.91,0,0,0,12.27,3.86,21.89,21.89,0,1,0-17.79-9.36l.65.93L149.66,94.37l-.8-.63a39.2,39.2,0,0,0-39.78-5.32l-1,.43L91.86,63.68,92.91,63A28.88,28.88,0,1,0,77,67.77a26.83,26.83,0,0,0,8.66-1.48l.93-.33,16.56,25.67-1,.68A39.54,39.54,0,0,0,85,124.89a39.06,39.06,0,0,0,8.16,23.87l.65.83-35.26,38.6-.93-.68a28,28,0,0,0-17.07-5.82,28.89,28.89,0,1,0,28.84,28.94A28.21,28.21,0,0,0,63.17,193l-.68-.85,35.08-38.42.93.83a39,39,0,0,0,52.65-.33l.8-.73,33.28,27.86-.48.9a28.16,28.16,0,0,0-3.54,13.55A28.89,28.89,0,1,0,210.06,167ZM184.06,50A16.1,16.1,0,1,1,168,66.16,16.16,16.16,0,0,1,184.06,50ZM77,62.1a23.18,23.18,0,1,1,23.24-23.16A23.19,23.19,0,0,1,77,62.1ZM63.68,210.62a23.21,23.21,0,1,1-23.16-23.26A23.21,23.21,0,0,1,63.68,210.62Zm61-51.67a34,34,0,1,1,34-34.06A34.07,34.07,0,0,1,124.69,158.94Zm85.38,60.13a23.21,23.21,0,1,1,23.26-23.26A23.24,23.24,0,0,1,210.06,219.08Z" transform="translate(-11.58 -10.1)"/><path class="cls-1" d="M192.73,195.82a17.38,17.38,0,1,0,17.35-17.35A17.45,17.45,0,0,0,192.73,195.82Z" transform="translate(-11.58 -10.1)"/><path class="cls-1" d="M23.46,210.61a17,17,0,1,0,17-17A17.08,17.08,0,0,0,23.46,210.61Z" transform="translate(-11.58 -10.1)"/><path class="cls-1" d="M59.74,38.93A17.29,17.29,0,1,0,77,21.67,17.26,17.26,0,0,0,59.74,38.93Z" transform="translate(-11.58 -10.1)"/><path class="cls-1" d="M174.16,66.16a9.94,9.94,0,1,0,9.91-10A9.91,9.91,0,0,0,174.16,66.16Z" transform="translate(-11.58 -10.1)"/><path class="cls-1" d="M99.4,124.91a25.23,25.23,0,1,0,25.27-25.2A25.3,25.3,0,0,0,99.4,124.91Z" transform="translate(-11.58 -10.1)"/></svg>