<svg id="Layer_1" data-name="Layer 1" xmlns="http://www.w3.org/2000/svg" viewBox="0 0 231.46 231.48"><defs><style>.cls-1{fill:#fff;}</style></defs><title>viziune-alb</title><path class="cls-1" d="M64.36,93.91,53.12,106.36l-6.35,7.05-3.12-9-.81-2.39c-.25.11-.51.22-.76.37C41,103,40,103.52,39,104.08l-.06,0-.06.06c-.87.45-1.66,1-2.33,1.38l-.08.06-.08.06a6.42,6.42,0,0,0-.81.51c-.59.37-1.18.73-1.74,1.12l-.11.08-.11.08a4.27,4.27,0,0,0-.39.25c-.65.45-1.24.9-1.85,1.38s-1.35,1-2.05,1.66a31.31,31.31,0,0,0-6,6.72l-.28.45-.25.48a7.31,7.31,0,0,0-.45.84c-.14.25-.25.51-.37.76l-.11.28-.08.2-.08.22a12.83,12.83,0,0,0-.87,4.58c0,.34,0,.7.06,1v.14l0,.14a2.67,2.67,0,0,0,.08.65l.06.22,0,.22a5,5,0,0,0,.22.93v.08l0,.08c.08.28.17.53.28.84s.28.73.45,1.15h0c.14.28,1.18,2.11,2.3,3.74v.11c.17.2.34.42.53.65a7.55,7.55,0,0,0,.62.79c.28.34.59.67.9,1,.84.9,1.69,1.71,2.64,2.56.45.39.87.76,1.35,1.12l.11.08.11.08c.39.34.81.65,1.24,1L32,142c.45.31.9.65,1.38,1,.9.59,1.85,1.21,2.84,1.83h0c.48.34,1,.62,1.46.93l.84.48c.42.22.81.45,1.21.67,2.81,1.52,5.65,2.89,8.43,4.07l.11.06.11,0c.39.2.79.37,1.21.53l.31.11c1.21.51,2.42,1,3.76,1.46,2.3.87,4.86,1.74,8.12,2.73,1.26.42,2.56.79,4,1.18,1.1.31,2.22.62,3.34.9l1.94.48a276.51,276.51,0,0,1,0-66.31C68.77,92.68,66.55,93.27,64.36,93.91Z" transform="translate(-9.54 -9.54)"/><path class="cls-1" d="M229.68,123.95a2.68,2.68,0,0,0-.08-.65l-.06-.28a12.7,12.7,0,0,0-1.15-3.54l-.53-1c-.14-.22-.25-.42-.39-.67a0,0,0,0,0,0,0,.59.59,0,0,0-.11-.17.1.1,0,0,0,0-.08,9,9,0,0,0-.65-.9c-.17-.28-.39-.56-.59-.84-.48-.62-1-1.21-1.55-1.83l-.08-.08c-.34-.39-.7-.79-1.12-1.21-.62-.62-1.32-1.26-2.05-1.88l-.08-.08-.08-.08-.93-.76-.08-.06-.06,0c-1.24-1-2.64-2-4.33-3.15-.14-.08-.28-.17-.39-.25-.42-.25-.81-.53-1.26-.79l-.11-.08c-.31-.2-.65-.39-1-.59l-.06,0-.08-.06-2-1.12c-2.81-1.52-5.65-2.89-8.43-4.07l-.11-.06-.11,0c-.39-.2-.79-.37-1.21-.53l-.34-.11c-1.18-.51-2.39-1-3.74-1.46-2.3-.87-4.86-1.74-8.12-2.73-1.26-.42-2.56-.79-3.93-1.18-1.07-.31-2.14-.59-3.17-.84l-.17,0-.93-.25h-.06l-.06,0-.93-.25a.21.21,0,0,1-.14,0c.06,0,.11,0,.14.06a269.51,269.51,0,0,1,2,33.15v2.39l3.4.28,9.47.76-5.23,7.92-8.6,13v0l-.93,1.4L176,156.51,174,159.69c1-.2,1.91-.42,2.84-.62,1.57-.37,3.12-.73,4.61-1.12.56-.14,1.15-.28,1.71-.45s1.12-.28,1.69-.45l2-.59c.65-.2,1.32-.37,2-.59,3.2-1,5.76-1.85,8.15-2.75,1.26-.45,2.47-.93,3.62-1.4l0,0c.42-.17.87-.34,1.29-.53l.25-.11.11,0,.11-.06c2.78-1.18,5.62-2.56,8.37-4l1.26-.7c.25-.17.53-.31.79-.48q.8-.46,1.52-.93h0c1-.62,1.94-1.24,2.84-1.83l1.29-.93.22-.17c.42-.34.84-.65,1.24-1l.11-.08.11-.08c.48-.37.9-.73,1.4-1.18s1.18-1.07,1.77-1.66l0,0a23.42,23.42,0,0,0,5.17-7.08v0c.17-.39.34-.76.48-1.15l.25-.81,0-.08v-.08a5,5,0,0,0,.22-.93l0-.22.06-.22a2.68,2.68,0,0,0,.08-.65l0-.14v-.14c0-.34.06-.7.06-1s0-.7-.06-1v-.14Z" transform="translate(-9.54 -9.54)"/><path class="cls-1" d="M155.56,60.79s0-.08,0-.11c-.22-.7-.45-1.43-.7-2.14s-.48-1.46-.73-2.19c-.11-.31-.2-.62-.34-.93-.37-1.12-.79-2.25-1.21-3.32,0,0,0,0,0,0-.45-1.18-.9-2.33-1.38-3.46-.08-.2-.17-.39-.25-.56-.53-1.29-1.12-2.56-1.71-3.79,0,0,0-.08-.06-.11-.25-.53-.48-1-.79-1.63-.14-.28-.28-.56-.51-1-.65-1.21-1.29-2.44-2-3.62s-1.4-2.33-2.14-3.46a0,0,0,0,1,0,0c-.28-.45-.56-.84-.79-1.18-.51-.7-1-1.35-1.49-2a40.54,40.54,0,0,0-2.89-3.4c-.48-.51-1-1-1.46-1.46-.31-.31-.65-.62-1-.9-.59-.51-1-.87-1.4-1.12l-.11-.08-.08-.06c-.39-.31-.79-.56-1.18-.84l-.08-.06c-.37-.2-.7-.42-1.1-.65L131,22.13a1.38,1.38,0,0,0-.31-.11,4.73,4.73,0,0,0-.79-.34,1.36,1.36,0,0,0-.31-.11l-.42-.14-.42-.14-.08,0h-.08a5,5,0,0,0-.93-.22l-.22,0-.22-.06a2.68,2.68,0,0,0-.65-.08l-.14,0h-.14c-.34,0-.7-.06-1-.06s-.7,0-1,.06h-.14l-.14,0a2.68,2.68,0,0,0-.65.08l-.22.06-.22,0a7,7,0,0,0-1,.22l-.22.08a3,3,0,0,0-.53.17l-.11,0-.14.06a12.2,12.2,0,0,0-1.35.53,0,0,0,0,1,0,0l-1.07.56c-.34.2-.7.39-1,.62l-.11.06c-.39.28-.79.53-1.18.84l-.08.06-.11.08c-.37.25-.81.62-1.4,1.12-.34.28-.67.59-1,.9-.48.45-1,1-1.46,1.46a40.54,40.54,0,0,0-2.89,3.4c-.48.62-1,1.26-1.43,1.91-.28.42-.56.81-.87,1.29-.73,1.12-1.46,2.28-2.14,3.46s-1.26,2.28-1.91,3.46a1.31,1.31,0,0,1-.14.28c-.17.31-.31.59-.51,1s-.51,1-.79,1.63c-.67,1.4-1.32,2.87-2,4.36-.48,1.12-.93,2.28-1.38,3.46,0,0,0,0,0,0-.37.93-.7,1.85-1,2.81l-.17.51-.34.93c-.51,1.43-1,2.92-1.46,4.44-.22.67-.45,1.38-.65,2.08V63l0,.06c-.34,1-.62,2-.9,3.06-.11.37-.2.76-.31,1.18s-.31,1.18-.48,1.8-.34,1.32-.51,2c.79-.11,1.57-.2,2.39-.28l2-.22c.67-.08,1.35-.14,2-.2a.36.36,0,0,1,.17,0c.67-.06,1.35-.14,2.05-.2,1.15-.11,2.33-.2,3.51-.28,1.52-.11,3-.22,4.55-.31l3.15-.17,2.81-.11c1.69-.06,3.4-.11,5.11-.14s3.57-.06,5.37-.06,3.6,0,5.37.06,3.43.08,5.11.14l2.81.11,3.15.17c1.52.08,3,.2,4.55.31,1.18.08,2.36.17,3.51.28.7.06,1.38.14,2.05.2a.36.36,0,0,1,.17,0q2,.17,4,.42c.81.08,1.6.17,2.39.28-.45-1.83-.84-3.46-1.29-4.94-.28-1.07-.56-2.08-.9-3.09l0-.06v-.08C156,62.19,155.81,61.55,155.56,60.79Z" transform="translate(-9.54 -9.54)"/><path class="cls-1" d="M93.16,183.57c.08.31.17.62.25.9l.42,1.52c.14.53.31,1,.48,1.55l.06.17c.11.42.22.81.37,1.26a7.23,7.23,0,0,0,.22.73c.06.17.08.34.14.51.25.79.51,1.55.76,2.3.37,1.12.76,2.19,1.15,3.29s.76,2.11,1.18,3.12c0,0,0,0,0,.06.2.51.39,1,.62,1.55l.37.93q.55,1.35,1.1,2.61c.7,1.49,1.38,2.92,2.05,4.3l.06.11c.42.79.81,1.57,1.24,2.3s.79,1.4,1.21,2.11a65.41,65.41,0,0,0,3.65,5.62l.17.22c.34.42.65.84,1,1.24l.08.11.08.11c.37.48.73.9,1.18,1.4a31.35,31.35,0,0,0,2.47,2.56q.51.51,1,.93c.59.51,1,.87,1.4,1.12l.11.08.08.06c.39.31.79.56,1.18.84l.08.06c.37.2.73.42,1.1.65l1.07.56a12.16,12.16,0,0,0,1.35.53l.14.06.11,0a3.55,3.55,0,0,0,.51.17l.31.08a4.47,4.47,0,0,0,.93.22l.22,0,.22.06a2.68,2.68,0,0,0,.65.08l.14,0h.14c.34,0,.7.06,1,.06s.7,0,1-.06h.14l.14,0a2.68,2.68,0,0,0,.65-.08l.22-.06.22,0a4.48,4.48,0,0,0,.93-.22h.08l.08,0,.84-.28a9.7,9.7,0,0,0,1.43-.59l1.07-.56c.34-.2.7-.39,1-.62l.11-.06c.39-.28.79-.53,1.18-.84l.08-.06.11-.08c.37-.25.81-.62,1.4-1.12.17-.14.34-.28.51-.45l.51-.45.59-.56c.59-.59,1.21-1.26,1.94-2.08.39-.45.76-.87,1.12-1.35l.08-.11.08-.11c.34-.39.65-.81,1-1.26l.14-.17c1.21-1.63,2.44-3.54,3.68-5.62.39-.7.81-1.4,1.21-2.14s.81-1.52,1.24-2.3l.06-.11c.67-1.38,1.35-2.81,2-4.27.39-.84.76-1.74,1.1-2.58l.39-1c.22-.51.42-1,.65-1.6s.53-1.35.79-2.05.53-1.43.79-2.16.51-1.46.76-2.19.48-1.52.73-2.28l.17-.53c.08-.25.17-.51.22-.73.14-.45.25-.84.37-1.26l0-.08,0-.08c.17-.51.34-1,.48-1.55s.31-1,.45-1.55c.39-1.46.76-3,1.15-4.52,0-.14.08-.28.11-.42-.79.11-1.57.2-2.39.28-1.32.17-2.7.31-4,.42a.36.36,0,0,1-.17,0c-.67.06-1.35.14-2.05.2-1.15.11-2.33.2-3.51.28-1.52.11-3,.22-4.55.31l-3.15.17-2.81.11c-1.69.06-3.4.11-5.11.14s-3.57.06-5.37.06-3.6,0-5.37-.06-3.43-.08-5.11-.14l-2.81-.11-3.15-.17c-1.52-.08-3-.2-4.55-.31-1.18-.08-2.36-.17-3.51-.28-.7-.06-1.38-.14-2.05-.2a.36.36,0,0,1-.17,0q-2-.17-4-.42c-.81-.08-1.6-.17-2.39-.28.06.28.14.56.2.81.14.59.28,1.15.45,1.71S93,183.06,93.16,183.57Z" transform="translate(-9.54 -9.54)"/><path class="cls-1" d="M163.29,99.31c-.2-1.91-.42-3.79-.67-5.7-.2-1.52-.39-3-.65-4.55a1.89,1.89,0,0,0-.06-.39c-.28-.06-.56-.11-.84-.14-3.88-.59-8.06-1.1-12.78-1.55-7.42-.7-15.14-1.07-23-1.07s-15.59.37-23,1.07c-4.72.45-8.91,1-12.78,1.55-.28,0-.56.08-.84.14a1.42,1.42,0,0,0-.06.37c-.25,1.57-.48,3.17-.67,4.78-.25,1.83-.45,3.65-.65,5.48-.17,1.66-.34,3.34-.48,5.09-.56,6.86-.87,13.88-.87,20.9s.31,14,.87,21c.14,1.71.31,3.4.48,5,.14,1.32.28,2.61.45,3.93a1.19,1.19,0,0,0,.06.31c.08.84.2,1.71.34,2.56v.11c.17,1.24.34,2.47.53,3.71,1,.17,2,.31,3,.45.11,0,.2,0,.31,0l.39.06c.93.14,1.83.25,2.75.37s1.63.22,2.44.31c1.35.17,2.73.31,4.1.42,1.12.11,2.25.22,3.4.31s2.58.2,3.91.28c.76.06,1.55.11,2.3.14,1,.06,2,.11,3,.14a5.41,5.41,0,0,0,.67,0c1.24.06,2.47.11,3.74.11,2.19.08,4.41.11,6.63.11s4.44,0,6.63-.11c1.26,0,2.5-.06,3.74-.11a5.41,5.41,0,0,0,.67,0c1,0,2-.08,3-.14.76,0,1.55-.08,2.3-.14,1.32-.08,2.61-.17,3.91-.28,2-.14,3.91-.34,5.84-.56h.11a8,8,0,0,0,.81-.08c1.32-.14,2.61-.31,3.91-.48.76-.08,1.49-.2,2.22-.31q1.77-.21,3.54-.51c.06-.42.14-.9.2-1.38.45-3.12.79-5.59,1-7.84.11-1,.22-2.11.34-3.17v0l-6.91-15.51-3.85-8.65,9.47.79,2.47.2v-1c0-7-.31-14-.87-20.93C163.62,102.62,163.45,100.94,163.29,99.31Z" transform="translate(-9.54 -9.54)"/><path class="cls-1" d="M170.14,132.38l-5.62-.48-2.84-.22,2.61,5.9v.11l4.89,10.87,2.16,4.86,3.57-5.42v0l9.52-14.44-8.68-.7c.08-2.5.11-5,.11-7.56a259.18,259.18,0,0,0-2.22-34.47l-1.94-.42-4-.76c.22,1.49.42,3,.62,4.5s.37,3.06.53,4.61.34,3.43.48,5.17q.88,10.41.9,21.38c0,1.4,0,2.78,0,4.16Z" transform="translate(-9.54 -9.54)"/><path class="cls-1" d="M78.58,160.11h.11l.59.14c1.24.25,2.36.48,3.48.67h.06c-.22-1.49-.45-3-.62-4.5s-.37-3-.53-4.58c-.17-1.71-.34-3.43-.48-5.17q-.89-10.45-.9-21.41t.9-21.38c.14-1.74.31-3.48.48-5.17s.34-3.09.53-4.61.39-3,.62-4.5l-4,.76-1.07.22-.2,0-.67.14v0a269.06,269.06,0,0,0,0,69Z" transform="translate(-9.54 -9.54)"/><path class="cls-1" d="M177.7,80c-1-.22-2-.42-3-.62s-2-.39-3-.59c-2-.39-4-.76-6.1-1.07-1-.17-2-.31-3-.45s-2-.28-3-.39a268.82,268.82,0,0,0-68.95,0c-1,.11-2,.25-3,.39s-2,.28-3,.45a.87.87,0,0,1,.08-.37c.17-.87.34-1.71.53-2.58s.42-2,.67-2.92c.06-.28.14-.59.2-.87.51-2.16,1.07-4.3,1.63-6.38.31-1.12.62-2.22,1-3.29.22-.79.45-1.55.7-2.3A125.44,125.44,0,0,1,96.3,41.82c.28-.62.56-1.21.87-1.8.17-.34.34-.67.53-1a77.62,77.62,0,0,1,4.44-7.61c.31-.48.62-.93.93-1.38a50.62,50.62,0,0,1,6.57-7.7c.39-.37.79-.73,1.18-1.07.59-.51,1.21-1,1.8-1.43s1-.73,1.52-1.07l0,0c.51-.31,1-.62,1.52-.9s.93-.51,1.4-.73a17.49,17.49,0,0,1,2-.81c.37-.14.76-.25,1.12-.37a11.34,11.34,0,0,1,1.88-.42,9.75,9.75,0,0,1,1.55-.22,15.78,15.78,0,0,1,3.26,0,9.75,9.75,0,0,1,1.55.22,11.34,11.34,0,0,1,1.88.42c.39.11.76.22,1.15.37a19.42,19.42,0,0,1,2,.81c.48.22,1,.48,1.4.73s1,.59,1.52.9l0,0c.51.34,1,.67,1.52,1.07s1.21.93,1.8,1.43c.39.34.79.7,1.18,1.07a50.62,50.62,0,0,1,6.57,7.7c.31.45.62.9.93,1.38A77.62,77.62,0,0,1,152.83,39c.2.37.37.7.53,1,.31.59.59,1.18.87,1.8A125.44,125.44,0,0,1,160.9,59c.25.76.48,1.52.7,2.3.34,1.07.65,2.16,1,3.29.59,2.08,1.12,4.21,1.63,6.38.06.28.14.59.2.87.73.08,1.43.2,2.14.31,1.29.2,2.67.42,4,.67-8.2-37.87-25.23-63.3-45.29-63.3S88.18,35,80,72.87c-.22,1-.42,2-.62,3s-.39,2-.59,3c-.37,2-.73,4-1,6.07,2-.39,4-.76,6-1.12,1-.17,2-.34,3-.48L88.63,83c.31-.06.62-.08,1-.14,4-.59,8-1,12.14-1.43,7.61-.73,15.51-1.1,23.54-1.1s15.93.37,23.54,1.1c4.13.39,8.15.84,12.11,1.43l1,.14c.65.11,1.32.2,2,.31,1,.14,2,.31,2.92.48,2,.37,4,.73,6,1.12,1,.2,2,.42,3,.65.51.08,1,.2,1.49.31s1,.2,1.43.34c1.1.22,2.14.48,3.17.76,1.55.37,3,.76,4.5,1.18s2.78.79,4.1,1.21c2.92.9,5.73,1.83,8.4,2.84,1.32.48,2.58,1,3.85,1.49.62.25,1.26.51,1.85.79,3.17,1.35,6.15,2.81,8.91,4.3.76.42,1.52.84,2.22,1.26q.67.38,1.26.76,1,.59,1.85,1.18c1.71,1.12,3.29,2.25,4.75,3.43.48.37.93.73,1.35,1.12a36.31,36.31,0,0,1,7.05,7.9c.28.42.53.87.79,1.32s.51.93.73,1.4a18.83,18.83,0,0,1,1.6,5,9.75,9.75,0,0,1,.22,1.55,15.78,15.78,0,0,1,0,3.26,9.75,9.75,0,0,1-.22,1.55,11.32,11.32,0,0,1-.42,1.88c-.11.39-.22.76-.37,1.15a19.39,19.39,0,0,1-.81,2c-.22.48-.48,1-.73,1.4s-.59,1-.9,1.52a0,0,0,0,0,0,0c-.34.51-.67,1-1.07,1.52s-.93,1.21-1.43,1.8c-.34.39-.7.79-1.07,1.18-.93,1-1.91,1.94-3,2.89-.53.48-1.1,1-1.69,1.4s-1.1.87-1.69,1.32a73.64,73.64,0,0,1-6.18,4c-.7.42-1.46.84-2.22,1.26-2.75,1.49-5.73,3-8.91,4.3-.59.28-1.24.53-1.85.79-1.26.51-2.53,1-3.85,1.49-2.67,1-5.48,1.94-8.4,2.84-1.32.42-2.7.81-4.1,1.21-1.15.34-2.33.65-3.54,1s-2.73.67-4.13,1c-1,.22-1.94.45-2.92.65s-2,.45-3,.65a1.41,1.41,0,0,1-.34.06c-1.4.31-2.84.59-4.27.81l-1.4.25c-1,.17-1.94.34-3,.48s-1.91.31-2.89.45a249.78,249.78,0,0,1-35.68,2.53,249.68,249.68,0,0,1-35.65-2.53c-1-.14-2-.28-2.92-.45s-2-.31-3-.48l-1.4-.25c-1.43-.22-2.87-.51-4.27-.81a1.41,1.41,0,0,1-.34-.06c-1-.2-2-.42-3-.65s-2-.42-2.92-.65c-1.4-.31-2.78-.65-4.13-1s-2.39-.62-3.54-1c-1.4-.39-2.78-.79-4.1-1.21-2.92-.9-5.73-1.83-8.4-2.84-1.32-.48-2.58-1-3.85-1.49-.62-.25-1.26-.51-1.85-.79-3.17-1.35-6.15-2.81-8.91-4.3-.76-.42-1.52-.84-2.22-1.26a73.61,73.61,0,0,1-6.18-4c-.59-.45-1.15-.87-1.69-1.32s-1.15-.93-1.69-1.4c-1.1-1-2.08-1.91-3-2.89-.37-.39-.73-.79-1.07-1.18-.51-.59-1-1.21-1.43-1.8s-.73-1-1.07-1.52a0,0,0,0,0,0,0c-.31-.51-.62-1-.9-1.52s-.51-.93-.73-1.4a19.43,19.43,0,0,1-.81-2c-.14-.39-.25-.76-.37-1.15a11.34,11.34,0,0,1-.42-1.88,9.77,9.77,0,0,1-.22-1.55,15.81,15.81,0,0,1-.08-1.63,18.39,18.39,0,0,1,1.24-6.55c.08-.22.17-.48.28-.73.2-.45.39-.93.65-1.4s.37-.7.56-1l.59-1a36.61,36.61,0,0,1,7.14-8c.73-.65,1.52-1.26,2.33-1.88.65-.51,1.32-1,2.05-1.52.2-.14.39-.28.62-.42.65-.45,1.29-.87,2-1.29.31-.2.62-.39,1-.59.84-.53,1.71-1.07,2.64-1.57S38.37,98,39.55,97.4c1-.48,2-1,3.06-1.46s2.05-1,3.12-1.4l.37-.17L48,99.7l1,2.89,4.66-5.17,7.67-8.49,3.62-4L58.21,83.8,41.43,81l2.75,7.87C22.72,98,9.54,110.83,9.54,125.27c0,20.06,25.46,37.06,63.3,45.26,1,.22,2,.42,3,.62s2,.39,3,.59c2,.39,4,.76,6.1,1.07,1,.17,2,.31,3,.45s2,.28,3,.39a259.2,259.2,0,0,0,34.47,2.22,259.2,259.2,0,0,0,34.47-2.22c1-.11,2-.25,3-.39s2-.28,3-.45a.82.82,0,0,1-.06.25c-.2.93-.37,1.8-.56,2.7-.06.2-.08.42-.14.62-.17.79-.34,1.55-.53,2.3l0,0c-.11.51-.22,1-.34,1.49-.06.25-.11.51-.17.73-.11.48-.25,1-.37,1.46-.28,1.18-.62,2.39-.93,3.57s-.62,2.19-1,3.26c-.25.9-.53,1.83-.81,2.7-1,3.15-2.05,6.18-3.2,9.08-.34.87-.7,1.74-1,2.58s-.79,1.91-1.21,2.84c-.73,1.57-1.46,3.09-2.16,4.55q-.67,1.31-1.35,2.53c-.42.76-.84,1.49-1.26,2.22a65.31,65.31,0,0,1-4,6.18c-.45.59-.87,1.15-1.32,1.69s-.93,1.15-1.4,1.69a37.06,37.06,0,0,1-2.89,3c-.39.37-.79.73-1.18,1.07-.59.51-1.21,1-1.8,1.43s-1,.73-1.52,1.07l0,0c-.51.31-1,.62-1.52.9s-.93.51-1.4.73a19.42,19.42,0,0,1-2,.81c-.39.14-.76.25-1.15.37a11.34,11.34,0,0,1-1.88.42,9.77,9.77,0,0,1-1.55.22,15.78,15.78,0,0,1-3.26,0,9.77,9.77,0,0,1-1.55-.22,11.34,11.34,0,0,1-1.88-.42c-.37-.11-.76-.22-1.12-.37a17.49,17.49,0,0,1-2-.81c-.48-.22-1-.48-1.4-.73s-1-.59-1.52-.9l0,0c-.51-.34-1-.67-1.52-1.07s-1.21-.93-1.8-1.43c-.39-.34-.79-.7-1.18-1.07a37.06,37.06,0,0,1-2.89-3c-.48-.53-1-1.1-1.4-1.69s-.87-1.1-1.32-1.69a65.28,65.28,0,0,1-4-6.18c-.42-.73-.84-1.46-1.26-2.22s-.9-1.66-1.35-2.53c-.7-1.46-1.43-3-2.16-4.55-.42-.93-.81-1.88-1.21-2.84s-.7-1.71-1-2.58c-1.15-2.89-2.22-5.93-3.2-9.08-.28-.87-.56-1.8-.81-2.7-.34-1.07-.65-2.16-1-3.26s-.65-2.39-.93-3.6-.62-2.44-.87-3.68h0c-.73-.08-1.43-.2-2.14-.31-1.29-.2-2.67-.42-4-.67,8.2,37.87,25.23,63.33,45.29,63.33s37.09-25.46,45.29-63.36c.22-1,.42-2,.62-3s.39-2,.59-3c1-.2,2-.37,3-.59s2-.39,3-.62c37.85-8.2,63.3-25.2,63.3-45.26S215.54,88.21,177.7,80Z" transform="translate(-9.54 -9.54)"/></svg>