<svg xmlns="http://www.w3.org/2000/svg" xmlns:xlink="http://www.w3.org/1999/xlink" width="113.91" height="113.91" viewBox="0 0 113.91 113.91"><defs><filter id="a" x="0" y="0" width="113.91" height="113.91" filterUnits="userSpaceOnUse"><feOffset dy="4" input="SourceAlpha"/><feGaussianBlur stdDeviation="8" result="b"/><feFlood flood-opacity="0.161"/><feComposite operator="in" in2="b"/><feComposite in="SourceGraphic"/></filter></defs><g transform="translate(24 20)"><g transform="matrix(1, 0, 0, 1, -24, -20)" filter="url(#a)"><path d="M1814.361,888.954h-14.968V873.986a2.336,2.336,0,0,0-2.32-2.341h-26.652a2.34,2.34,0,0,0-2.341,2.341v14.968h-14.968a2.318,2.318,0,0,0-2.32,2.32v26.651a2.323,2.323,0,0,0,2.32,2.341h14.968v14.968a2.336,2.336,0,0,0,2.341,2.32h26.652a2.331,2.331,0,0,0,2.32-2.32V920.267h14.968a2.34,2.34,0,0,0,2.341-2.341V891.275A2.335,2.335,0,0,0,1814.361,888.954Z" transform="translate(-1726.79 -851.65)" fill="#25a8e0"/></g><text transform="translate(33.373 34.711)" fill="#fff" font-size="10" font-family="Montserrat-Medium, Montserrat" font-weight="500"><tspan x="-25.855" y="0">DONEAZA</tspan><tspan x="-8.025" y="13">2%</tspan></text></g></svg>