<?xml version="1.0" encoding="utf-8"?>

<!-- Generator: Adobe Illustrator 23.0.3, SVG Export Plug-In . SVG Version: 6.00 Build 0)  -->

<svg version="1.1" id="Layer_1" xmlns="http://www.w3.org/2000/svg" xmlns:xlink="http://www.w3.org/1999/xlink" x="0px" y="0px"

	 viewBox="0 0 113.9 113.9" style="enable-background:new 0 0 113.9 113.9;" xml:space="preserve">

<style type="text/css">

	.st0{filter:url(#a);}

	.st1{fill:#25A8E0;}

	.st2{fill:#FFFFFF;}

	.st3{font-family:'Montserrat-Medium';}

	.st4{font-size:10px;}

</style>

<filter  filterUnits="userSpaceOnUse" height="113.91" id="a" width="113.91" x="0" y="0">

	<feOffset  dy="4" input="SourceAlpha"></feOffset>

	<feGaussianBlur  result="b" stdDeviation="8"></feGaussianBlur>

	<feFlood  flood-opacity="0.161"></feFlood>

	<feComposite  in2="b" operator="in"></feComposite>

	<feComposite  in="SourceGraphic" operator="over"></feComposite>

</filter>

<g transform="translate(24 20)">

	<g transform="matrix(1, 0, 0, 1, -24, -20)" class="st0">

		<path class="st1" d="M87.6,37.3h-15v-15c0-1.3-1-2.3-2.3-2.3H43.6c-1.3,0-2.3,1-2.3,2.3c0,0,0,0,0,0v15h-15c-1.3,0-2.3,1-2.3,2.3

			c0,0,0,0,0,0v26.7c0,1.3,1,2.3,2.3,2.3c0,0,0,0,0,0h15v15c0,1.3,1.1,2.3,2.3,2.3h26.7c1.3,0,2.3-1,2.3-2.3v-15h15

			c1.3,0,2.3-1,2.3-2.3c0,0,0,0,0,0V39.6C89.9,38.3,88.9,37.3,87.6,37.3z"/>

	</g>

	<text transform="matrix(1 0 0 1 7.518 34.711)" class="st2 st3 st4">DONEAZA</text>

	<text transform="matrix(1 0 0 1 22.348 47.711)" class="st2 st3 st4">3,5%</text>

</g>

</svg>

