<?xml version="1.0" encoding="utf-8"?>
<!-- Generator: Adobe Illustrator 23.0.3, SVG Export Plug-In . SVG Version: 6.00 Build 0)  -->
<svg version="1.1" id="Layer_1" xmlns="http://www.w3.org/2000/svg" xmlns:xlink="http://www.w3.org/1999/xlink" x="0px" y="0px"
	 viewBox="0 0 500 500" style="enable-background:new 0 0 500 500;" xml:space="preserve">
<style type="text/css">
	.st0{fill:#FFFFFF;}
</style>
<g>
	<path class="st0" d="M467.1,68h-16.4V26.2c0-3.4-2.8-6.2-6.2-6.2h-11.7c-3.4,0-6.2,2.8-6.2,6.2v446.7c0,3.4,2.8,6.2,6.2,6.2h11.7
		c3.4,0,6.2-2.8,6.2-6.2V73.1H462l0,133h5.1l0-133h0V68z"/>
	<path class="st0" d="M385.7,52.3H77.8c-9.9,0-18,8.1-18,18v388.1c0,9.9,8.1,18,18,18h307.8c9.9,0,18-8.1,18-18V70.3
		C403.7,60.3,395.6,52.3,385.7,52.3z M384.3,446.8c0,7.6-6.2,13.8-13.9,13.8H93c-7.6,0-13.8-6.2-13.8-13.8V81.8
		C79.2,74.2,85.4,68,93,68h277.4c7.6,0,13.9,6.2,13.9,13.8V446.8z"/>
	<path class="st0" d="M358.8,90.8H104.6c-3.5,0-6.3,2.8-6.3,6.3v334.4c0,3.5,2.8,6.3,6.3,6.3h254.2c3.5,0,6.3-2.8,6.3-6.3V97.1
		C365.1,93.6,362.3,90.8,358.8,90.8z M287.5,285c0,2.9-2.3,5.2-5.2,5.2h-19.4c-2.9,0-5.2,2.3-5.2,5.2V313c0,2.9-2.3,5.2-5.2,5.2
		h-41.3c-2.9,0-5.2-2.3-5.2-5.2v-17.6c0-2.9-2.3-5.2-5.2-5.2h-19.4c-2.9,0-5.2-2.3-5.2-5.2v-41.3c0-2.9,2.3-5.2,5.2-5.2h19.4
		c2.9,0,5.2-2.4,5.2-5.2v-17.6c0-2.9,2.3-5.2,5.2-5.2h41.3c2.9,0,5.2,2.3,5.2,5.2v17.6c0,2.9,2.3,5.2,5.2,5.2h19.4
		c2.9,0,5.2,2.3,5.2,5.2V285z"/>
	<rect x="33.6" y="122.4" class="st0" width="12.6" height="90.4"/>
	<rect x="33.6" y="315.8" class="st0" width="12.6" height="90.4"/>
</g>
</svg>
