<?xml version="1.0" encoding="utf-8"?>
<!-- Generator: Adobe Illustrator 23.0.3, SVG Export Plug-In . SVG Version: 6.00 Build 0)  -->
<svg version="1.1" id="Layer_1" xmlns="http://www.w3.org/2000/svg" xmlns:xlink="http://www.w3.org/1999/xlink" x="0px" y="0px"
	 viewBox="0 0 500 500" style="enable-background:new 0 0 500 500;" xml:space="preserve">
<style type="text/css">
	.st0{fill:#FFFFFF;}
</style>
<g>
	<path class="st0" d="M181.1,109.2c0-13,10.5-23.5,23.5-23.5h90.8c13,0,23.5,10.5,23.5,23.5v31h25.7v-31c0-27.1-22.1-49.2-49.2-49.2
		h-90.8c-27.2,0-49.2,22-49.2,49.2v31h25.7V109.2z"/>
	<path class="st0" d="M372.6,276.5c7.1,0,12.8-5.8,12.8-12.8v-49.2h-43.9v49.2c0,7.1,5.8,12.9,12.9,12.9H372.6z"/>
	<path class="st0" d="M145.5,276.5c7.1,0,12.9-5.8,12.9-12.8v-49.2h-43.9v49.2c0,7.1,5.8,12.8,12.9,12.8H145.5z"/>
	<path class="st0" d="M448,150.9H52c-12.1,0-21.9,9.8-21.9,21.9v67.4h73.9v-36.3H169v36.3h162v-36.3h65.1v36.3H470v-67.4
		C470,160.7,460.1,150.9,448,150.9z M376.8,176.5c-1.3,1.3-3,1.8-4.8,1.5c-2.1-0.4-3.8-2.1-4.2-4.2c-0.3-1.8,0.2-3.5,1.5-4.8
		c1-1,2.3-1.6,3.8-1.6c0.3,0,0.7,0,1.1,0.1c2.1,0.4,3.8,2.1,4.2,4.2C378.6,173.5,378.1,175.3,376.8,176.5z M437.4,173.5
		c-0.3,2.6-2.7,4.6-5.5,4.6h-31.5c-1.5,0-3-0.7-4-1.8c-1-1.2-1.5-2.7-1.3-4.2c0.3-2.6,2.7-4.6,5.5-4.6h31.3c1.3,0,3.1,0.7,3.9,1.5
		C437,170.2,437.6,171.8,437.4,173.5z"/>
	<path class="st0" d="M396.1,250.8v12.9c0,13-10.5,23.5-23.5,23.5h-18.2c-13,0-23.5-10.5-23.5-23.5v-12.9H169v12.9
		c0,13-10.5,23.5-23.5,23.5h-18.2c-12.9,0-23.5-10.6-23.5-23.5v-12.9H30V418C30,430.2,39.9,440,52,440h396
		c12.1,0,21.9-9.8,21.9-21.9V250.8H396.1z M126.6,421.8c-1.4,1.4-3.4,1.9-5.4,1.3c-1.7-0.5-3-1.9-3.5-3.5c-0.5-2,0-3.9,1.3-5.3
		c1-1,2.3-1.6,3.8-1.6c0.3,0,0.7,0,1.1,0.1c2.1,0.4,3.8,2.1,4.1,4.2C128.4,418.8,127.8,420.5,126.6,421.8z M153.8,421.8
		c-1.4,1.4-3.4,1.9-5.4,1.3c-1.7-0.5-3-1.9-3.5-3.5c-0.5-2,0-3.9,1.3-5.3c1-1,2.3-1.6,3.8-1.6c0.3,0,0.7,0,1.1,0.1
		c2.1,0.4,3.8,2.1,4.1,4.2C155.6,418.8,155.1,420.5,153.8,421.8z M303.7,364.2c0,1.8-1.4,3.2-3.2,3.2h-25.5c-1.8,0-3.2,1.4-3.2,3.2
		V396c0,1.8-1.4,3.2-3.2,3.2h-37.6c-1.8,0-3.2-1.4-3.2-3.2v-25.5c0-1.8-1.4-3.2-3.2-3.2h-25.5c-1.8,0-3.2-1.4-3.2-3.2v-37.6
		c0-1.8,1.4-3.2,3.2-3.2h25.5c1.8,0,3.2-1.4,3.2-3.2v-25.5c0-1.8,1.4-3.2,3.2-3.2h37.6c1.8,0,3.2,1.4,3.2,3.2v25.5
		c0,1.8,1.4,3.2,3.2,3.2h25.5c1.8,0,3.2,1.4,3.2,3.2V364.2z M353.7,421.8c-1.3,1.3-3,1.8-4.8,1.5c-2.1-0.4-3.8-2.1-4.2-4.3
		c-0.3-1.8,0.2-3.5,1.5-4.7c1-1,2.3-1.6,3.8-1.6c0.4,0,0.9,0.1,1.3,0.2c2,0.5,3.5,2.1,3.9,4.1C355.5,418.8,354.9,420.5,353.7,421.8z
		 M380.9,421.8c-1.3,1.3-3,1.8-4.8,1.5c-2.1-0.4-3.8-2.1-4.2-4.3c-0.3-1.8,0.2-3.5,1.5-4.7c1-1,2.3-1.6,3.8-1.6
		c0.4,0,0.9,0.1,1.3,0.2c2,0.5,3.5,2.1,3.9,4.1C382.7,418.8,382.2,420.5,380.9,421.8z"/>
</g>
</svg>
