<?xml version="1.0" encoding="utf-8"?>
<!-- Generator: Adobe Illustrator 23.0.3, SVG Export Plug-In . SVG Version: 6.00 Build 0)  -->
<svg version="1.1" id="Layer_1" xmlns="http://www.w3.org/2000/svg" xmlns:xlink="http://www.w3.org/1999/xlink" x="0px" y="0px"
	 viewBox="0 0 500 500" style="enable-background:new 0 0 500 500;" xml:space="preserve">
<style type="text/css">
	.st0{fill:#FFFFFF;}
</style>
<g>
	<g>
		<g>
			<path class="st0" d="M444.2,81.4v115.8c0,24.1-9.4,46.7-26.4,63.7l-13.6,13.6c-1.1,1-1.7,2.5-1.7,4v43h0v0l-95.1,0v-43
				c0-1.5-0.6-2.9-1.7-4l-21.1-21c-12.7-12.7-21.3-28.7-24.7-46.3l-10.2-51.8c-0.8-3.8,0.1-7.7,2.2-10.8c2.2-3.2,5.5-5.3,9.3-6
				c7.4-1.3,14.6,3.4,16.4,10.7l5.3,21.5c1,4.2,4.9,6.9,9.3,6.4c4.3-0.5,7.5-4.1,7.5-8.4V61c0-7.7,6.2-13.9,13.9-13.9
				c7.1,0,13,5.3,13.8,12.3l0,0.4v60c0,0.2,0,0.4,0,0.7l0,0.4v5.9c0,3.1,2.5,5.6,5.6,5.6c3.1,0,5.6-2.5,5.6-5.6V61
				c0-0.6,0-1.1-0.1-1.7l0-0.2V42.6c0-7.6,6.2-13.9,13.9-13.9c7.6,0,13.9,6.2,13.9,13.9v16.8c0,0.5-0.1,1.1-0.1,1.7v58.8
				c0,0.2,0,0.5,0,0.7l0,0.4v5.9c0,3.1,2.5,5.6,5.6,5.6c3.1,0,5.6-2.5,5.6-5.6V59.7l0-0.2c0.8-7,6.7-12.3,13.8-12.3
				c7.6,0,13.9,6.2,13.9,13.9v18.7c0,0.5-0.1,1.1-0.1,1.7v38.5c0,0.2,0,0.5,0,0.7l0,0.4v5.9c0,3.1,2.5,5.6,5.6,5.6s5.6-2.5,5.6-5.6
				V80l0-0.2c0.8-7,6.7-12.3,13.8-12.3C438,67.5,444.2,73.7,444.2,81.4z"/>
			<path class="st0" d="M238.3,162.5v108.9c0,22.5-8.8,43.7-24.8,59.7l-12.8,12.8c-1.1,1.1-1.7,2.5-1.7,4v36.5h-88.8v-36.5
				c0-1.5-0.6-2.9-1.6-4l-19.8-19.8c-11.9-11.9-19.9-26.9-23.2-43.4L56,232.1c-0.7-3.5,0-7,2-10c2-2.9,5-4.9,8.5-5.5
				c6.8-1.2,13.4,3.1,15,9.8l5,20.2c1,4.1,4.8,6.8,9.1,6.3s7.3-4,7.3-8.3V143.3c0-7,5.7-12.7,12.7-12.7c6.5,0,11.9,4.8,12.6,11.3
				l0,0.4v56.4c0,0.2,0,0.4,0,0.6l0,0.4v5.5c0,3.1,2.5,5.6,5.6,5.6c3.1,0,5.6-2.5,5.6-5.6v-61.9c0-0.5,0-1-0.1-1.5V126
				c0-7,5.7-12.7,12.7-12.7S165,119,165,126l0,15.8c0,0.5-0.1,1-0.1,1.6v55.4c0,0.2,0,0.4,0,0.7l0,0.4v5.5c0,3.1,2.5,5.6,5.6,5.6
				c3.1,0,5.6-2.5,5.6-5.6v-63.1l0-0.2c0.7-6.4,6.2-11.3,12.6-11.3c7,0,12.7,5.7,12.7,12.7l0,17.6c0,0.5,0,1,0,1.6v36.2
				c0,0.2,0,0.4,0,0.7l0,0.4v5.5c0,3.1,2.5,5.6,5.6,5.6c3.1,0,5.6-2.5,5.6-5.6l0-44.2c0.7-6.4,6.2-11.3,12.6-11.3
				C232.6,149.8,238.3,155.5,238.3,162.5z"/>
		</g>
	</g>
	<rect x="99.1" y="395.6" class="st0" width="111.6" height="75.7"/>
	<path class="st0" d="M410.9,332.6L410.9,332.6l-114.8,0v25.3l36.9,0.1c3.4,0,6.2,2.5,6.2,5.6c0,3.1-2.8,5.6-6.2,5.6l-36.9-0.1
		v102.2h117.8V332.6L410.9,332.6z M377.8,367.5c-1.2,1.1-2.8,1.7-4.4,1.7c-1.6,0-3.2-0.6-4.4-1.6c-1.2-1-1.8-2.5-1.8-4
		c0-1.5,0.7-2.9,1.8-4c1.2-1,2.8-1.7,4.4-1.7c1.6,0,3.2,0.6,4.4,1.7c1.2,1,1.8,2.5,1.8,4C379.6,365,379,366.5,377.8,367.5z"/>
</g>
</svg>
