<?xml version="1.0" encoding="utf-8"?>
<!-- Generator: Adobe Illustrator 23.0.3, SVG Export Plug-In . SVG Version: 6.00 Build 0)  -->
<svg version="1.1" id="Layer_1" xmlns="http://www.w3.org/2000/svg" xmlns:xlink="http://www.w3.org/1999/xlink" x="0px" y="0px"
	 viewBox="0 0 500 500" style="enable-background:new 0 0 500 500;" xml:space="preserve">
<style type="text/css">
	.st0{fill:#FFFFFF;}
</style>
<g>
	<path class="st0" d="M412.2,144.6c2.9,0,5.2-2.3,5.2-5.2s-2.3-5.2-5.2-5.2c-2.9,0-5.2,2.3-5.2,5.2S409.4,144.6,412.2,144.6z"/>
	<path class="st0" d="M439.9,161.8c-2.9,0-5.2,2.3-5.2,5.2c0,12.4-10.1,22.4-22.4,22.4s-22.4-10.1-22.4-22.4c0-0.9,0-1.7,0.1-2.5
		c0.2-1.4-0.2-2.7-1.1-3.8c-0.9-1.1-2.1-1.8-3.5-1.9c-0.2,0-0.4,0-0.6,0c-2.6,0-4.9,2-5.2,4.6c-0.1,1.1-0.2,2.4-0.2,3.7
		c0,18.1,14.7,32.9,32.9,32.9s32.9-14.8,32.9-32.9C445.1,164.1,442.8,161.8,439.9,161.8z"/>
	<path class="st0" d="M412.2,97.3c-38.5,0-69.8,31.3-69.8,69.8c0,28.5,17.1,53.9,43.6,64.6l2.5,1v98.4c0,53.7-51,100.8-109.1,100.8
		c-29.4,0-59.6-13.7-80.8-36.6c-20-21.5-29.8-48.3-27.7-75.4l0.2-2.9l2.8-0.7c42.6-10.6,74.5-45.7,81.2-89.2l19.8-120.1
		c5.4-31.1-14.4-61.4-45-69.1l-7.6-1.9l-0.8-1.5C215.9,24.4,204.9,18,193.1,18c-18.1,0-32.9,14.8-32.9,32.9
		c0,18.1,14.8,32.9,32.9,32.9c4.1,0,8.3-0.8,12.2-2.4l1.2-0.5l12.2,3c6.7,1.7,11,8.3,9.8,15.1l-6,34.7l-13.9,85.9
		c-4.7,30.6-30.6,52.8-61.6,52.8c-31,0-56.9-22.4-61.6-53.2L65.5,99c-1.2-6.8,3.1-13.4,9.8-15l12.2-3l1.2,0.5
		c3.9,1.6,8,2.4,12.2,2.4c18.1,0,32.9-14.8,32.9-32.9c0-18.1-14.7-32.9-32.9-32.9C89,18,78.1,24.4,72.3,34.7l-0.8,1.5L63.9,38
		c-30.6,7.6-50.4,37.9-45,69l19.8,119.8c6.8,44,38.9,79.3,81.9,89.8l3.2,0.8l-0.2,3.3c-1.9,39.9,14,80.5,43.5,111.5
		c30.2,31.7,71.2,49.8,112.4,49.8c83.3,0,156.4-69.2,156.4-148.1V232.7l2.5-1c26.5-10.8,43.6-36.1,43.6-64.6
		C482,128.6,450.7,97.3,412.2,97.3z M193.1,76.6c-14.2,0-25.7-11.5-25.7-25.7s11.5-25.7,25.7-25.7c14.2,0,25.7,11.5,25.7,25.7
		S207.3,76.6,193.1,76.6z M100.9,25.2c14.2,0,25.7,11.5,25.7,25.7s-11.5,25.7-25.7,25.7S75.2,65.1,75.2,50.9S86.7,25.2,100.9,25.2z
		 M451.8,207.3c-5.3,5.2-11.5,9.3-18.2,12c-6.7,2.7-13.3,4.2-20.7,4.2H412c-30.6-0.5-56.2-25.8-56.2-56.5c0-31.1,26-56.5,57.1-56.5
		c31.1,0,55.9,25.3,55.9,56.5C468.7,182,462.5,196.7,451.8,207.3z"/>
</g>
</svg>
