<?xml version="1.0" standalone="no"?>
<!DOCTYPE svg PUBLIC "-//W3C//DTD SVG 20010904//EN"
 "http://www.w3.org/TR/2001/REC-SVG-20010904/DTD/svg10.dtd">
<svg version="1.0" xmlns="http://www.w3.org/2000/svg"
 width="100.000000pt" height="100.000000pt" viewBox="0 0 100.000000 100.000000"
 preserveAspectRatio="xMidYMid meet">
<metadata>
Created by potrace 1.11, written by Peter Selinger 2001-2013
</metadata>
<g transform="translate(0.000000,100.000000) scale(0.100000,-0.100000)"
fill="#000000" stroke="none">
<path d="M265 711 c-3 -2 -5 -19 -5 -37 0 -18 -6 -35 -12 -37 -10 -4 -10 -6 0
-6 8 -1 12 -18 12 -49 l0 -47 -52 -19 c-29 -11 -65 -21 -80 -22 -30 -4 -108
-36 -108 -44 0 -3 47 -5 105 -5 58 -1 105 2 105 6 0 5 -29 7 -64 5 -66 -3 -99
5 -77 18 16 10 61 10 90 1 19 -6 23 -4 18 8 -4 11 3 19 25 26 17 6 33 11 34
11 2 0 4 -16 4 -36 0 -24 -4 -33 -12 -28 -7 4 -8 3 -4 -5 4 -6 16 -9 26 -6 13
4 22 -1 30 -15 13 -25 54 -26 72 -2 11 16 27 18 110 18 76 -1 100 -5 115 -19
25 -22 55 -22 74 1 13 15 30 18 97 17 45 -1 82 2 82 7 0 4 -17 8 -37 7 -67 -3
-70 -1 -71 36 -1 28 3 38 21 45 13 5 16 9 7 10 -12 0 -13 2 -1 9 7 5 22 6 32
4 15 -4 17 -8 8 -19 -6 -8 -7 -14 -3 -14 5 0 15 9 22 20 9 16 19 19 39 14 22
-6 25 -4 20 9 -6 16 16 47 33 47 14 0 21 -18 10 -25 -5 -3 -10 -11 -10 -18 0
-6 6 -2 14 8 8 11 19 16 30 12 9 -4 16 -2 16 2 0 5 -7 11 -15 15 -20 7 -19 24
3 29 14 4 13 5 -4 6 -11 0 -25 6 -32 13 -9 9 -12 9 -12 -1 0 -7 -6 -11 -15 -8
-8 4 -17 2 -20 -3 -4 -6 -1 -10 4 -10 6 0 11 -4 11 -10 0 -5 -7 -10 -15 -10
-8 0 -14 -3 -14 -7 4 -23 -3 -35 -16 -29 -8 3 -15 1 -15 -5 0 -5 -15 -9 -33
-7 -18 1 -39 -2 -46 -6 -7 -5 -16 -4 -20 1 -15 21 -64 52 -74 46 -5 -3 -7 -1
-4 4 7 11 -53 63 -71 63 -5 0 -9 -20 -7 -44 1 -25 -2 -51 -7 -58 -5 -8 -8 16
-7 62 l2 75 -152 1 c-83 0 -154 -2 -156 -5z m373 -87 c4 2 8 -6 8 -19 3 -40
-31 -24 -34 16 -2 28 0 31 8 16 6 -9 14 -16 18 -13z m297 16 c3 -5 -1 -10 -10
-10 -9 0 -13 5 -10 10 3 6 8 10 10 10 2 0 7 -4 10 -10z m-245 -51 c0 -5 -4 -7
-10 -4 -5 3 -10 1 -10 -6 0 -6 8 -9 20 -6 11 3 23 1 26 -4 3 -5 -11 -9 -30 -9
-38 0 -44 8 -24 28 15 15 28 15 28 1z m-50 -19 c0 -5 -5 -10 -11 -10 -5 0 -7
5 -4 10 3 6 8 10 11 10 2 0 4 -4 4 -10z m-54 -62 c-1 -27 4 -43 13 -46 9 -3
11 0 6 8 -6 9 -4 11 4 5 18 -10 -2 -27 -22 -19 -12 4 -17 18 -17 50 0 24 4 44
9 44 5 0 8 -19 7 -42z m-263 -38 c-9 -11 -19 -17 -21 -15 -6 6 18 35 29 35 5
0 1 -9 -8 -20z m37 -26 c-14 -16 -40 -19 -40 -4 0 6 3 9 8 9 25 -4 33 3 27 24
-5 19 -5 20 5 4 9 -14 9 -22 0 -33z m290 36 c0 -5 -4 -10 -9 -10 -6 0 -13 5
-16 10 -3 6 1 10 9 10 9 0 16 -4 16 -10z m24 -15 c3 -8 1 -15 -4 -15 -6 0 -10
7 -10 15 0 8 2 15 4 15 2 0 6 -7 10 -15z m-24 -25 c0 -5 -7 -10 -15 -10 -8 0
-15 5 -15 10 0 6 7 10 15 10 8 0 15 -4 15 -10z"/>
<path d="M728 633 c6 -2 18 -2 25 0 6 3 1 5 -13 5 -14 0 -19 -2 -12 -5z"/>
<path d="M848 633 c7 -3 16 -2 19 1 4 3 -2 6 -13 5 -11 0 -14 -3 -6 -6z"/>
<path d="M178 623 c7 -3 16 -2 19 1 4 3 -2 6 -13 5 -11 0 -14 -3 -6 -6z"/>
<path d="M205 600 c-3 -5 1 -10 10 -10 9 0 13 5 10 10 -3 6 -8 10 -10 10 -2 0
-7 -4 -10 -10z"/>
<path d="M910 541 c-14 -26 -13 -31 5 -25 8 4 13 10 10 14 -3 5 -2 11 3 14 5
3 16 -8 26 -25 9 -16 22 -29 27 -29 6 0 -2 16 -17 35 -30 40 -39 43 -54 16z"/>
<path d="M178 543 c7 -3 16 -2 19 1 4 3 -2 6 -13 5 -11 0 -14 -3 -6 -6z"/>
<path d="M66 532 c-2 -4 4 -8 14 -8 10 0 16 4 14 8 -3 4 -9 8 -14 8 -5 0 -11
-4 -14 -8z"/>
<path d="M807 503 c-3 -5 6 -9 20 -10 19 -1 22 1 12 8 -17 11 -26 11 -32 2z"/>
<path d="M865 451 c8 -8 135 -8 135 0 0 4 -32 6 -70 6 -39 0 -68 -3 -65 -6z"/>
<path d="M12 381 c-20 -13 -11 -91 12 -105 14 -8 20 -8 23 2 4 10 8 10 19 1
11 -9 14 -8 14 5 0 21 16 21 28 0 15 -27 19 -3 9 54 -10 63 -32 70 -42 12 -4
-22 -11 -38 -15 -35 -5 3 -13 -3 -19 -12 -12 -21 -12 -20 -15 30 -3 39 2 45
23 25 10 -11 12 -9 9 7 -4 22 -26 30 -46 16z m85 -63 c-3 -7 -5 -2 -5 12 0 14
2 19 5 13 2 -7 2 -19 0 -25z"/>
<path d="M138 378 c-4 -11 -3 -75 1 -100 0 -5 5 -8 10 -8 5 0 8 11 5 25 -2 14
0 25 6 25 5 0 10 -11 10 -25 0 -30 34 -35 45 -7 6 16 7 16 21 -2 20 -28 23
-18 12 47 -12 71 -34 77 -44 12 -7 -53 -18 -51 -19 3 0 30 -4 38 -21 40 -12 2
-24 -3 -26 -10z m32 -23 c0 -8 -4 -15 -8 -15 -5 0 -9 7 -9 15 0 8 4 15 9 15 4
0 8 -7 8 -15z m57 -37 c-3 -7 -5 -2 -5 12 0 14 2 19 5 13 2 -7 2 -19 0 -25z"/>
<path d="M254 373 c2 -10 8 -37 11 -60 6 -40 17 -54 29 -35 3 5 8 32 12 62 5
39 4 51 -5 46 -6 -4 -11 -21 -11 -38 0 -17 -2 -29 -5 -27 -4 5 -12 39 -14 62
-1 4 -6 7 -12 7 -6 0 -8 -8 -5 -17z"/>
<path d="M327 383 c-3 -5 -7 -33 -11 -63 -5 -47 -4 -53 8 -37 16 21 26 22 26
2 0 -8 5 -15 11 -15 11 0 5 92 -7 111 -6 11 -21 12 -27 2z m20 -54 c2 -16 -1
-19 -9 -11 -5 5 -7 15 -4 21 10 15 12 14 13 -10z"/>
<path d="M381 330 c2 -62 18 -85 20 -27 l1 32 10 -32 c11 -34 48 -48 48 -18 0
20 16 19 24 -1 12 -32 18 -5 11 51 -6 43 -11 55 -23 53 -10 -2 -17 -16 -20
-38 -5 -50 -12 -51 -12 -2 0 47 -16 57 -23 15 l-4 -28 -2 28 c0 17 -7 27 -16
27 -13 0 -15 -12 -14 -60z m99 -1 c0 -11 -4 -18 -10 -14 -5 3 -7 12 -3 20 7
21 13 19 13 -6z"/>
<path d="M537 383 c-12 -11 -8 -88 5 -101 18 -18 36 -14 44 10 l7 23 8 -23 c6
-15 15 -22 26 -20 14 2 19 15 21 61 2 32 -1 57 -7 57 -5 0 -9 -12 -9 -27 1
-55 -2 -74 -12 -68 -5 3 -8 23 -6 45 4 45 -1 55 -21 39 -9 -9 -13 -8 -13 0 0
12 -32 15 -43 4z m33 -23 c0 -5 7 -10 15 -10 8 0 15 -5 15 -10 0 -6 -7 -13
-15 -16 -8 -4 -15 -13 -15 -21 0 -8 -4 -11 -10 -8 -5 3 -10 22 -10 41 0 19 5
34 10 34 6 0 10 -4 10 -10z"/>
<path d="M680 329 c0 -40 4 -58 11 -54 6 4 8 13 5 21 -3 8 -1 14 4 14 5 0 10
-10 13 -22 4 -23 4 -23 15 2 l11 25 0 -24 c1 -41 14 -14 16 33 2 52 -10 79
-24 57 -5 -8 -8 -23 -6 -33 2 -10 0 -16 -6 -13 -5 4 -9 17 -9 31 0 15 -6 24
-15 24 -12 0 -15 -13 -15 -61z"/>
<path d="M769 385 c0 -3 -1 -25 -1 -50 0 -25 1 -49 1 -55 1 -13 94 -10 104 4
5 8 10 7 17 -4 9 -14 14 -8 11 15 -1 6 5 2 12 -7 17 -22 36 -23 43 -3 6 15 26
22 21 8 -1 -5 2 -10 8 -13 5 -3 10 19 10 53 1 37 -2 56 -9 54 -6 -2 -11 -20
-10 -41 0 -22 -4 -35 -10 -33 -6 2 -16 -3 -23 -12 -10 -13 -12 -9 -13 27 0 23
5 42 10 42 6 0 10 -5 10 -11 0 -5 4 -8 10 -4 15 9 0 35 -21 35 -10 0 -19 -4
-19 -10 0 -5 -5 -10 -11 -10 -5 0 -8 4 -5 8 2 4 -15 9 -40 10 l-44 2 0 -50 c0
-36 -4 -50 -14 -50 -21 0 -27 28 -8 39 16 9 16 10 0 16 -22 9 -24 25 -3 25 8
0 15 5 15 10 0 10 -39 15 -41 5z m91 -55 c0 -22 -4 -40 -10 -40 -5 0 -10 18
-10 40 0 22 5 40 10 40 6 0 10 -18 10 -40z m59 -12 c1 -5 -3 -8 -7 -8 -4 0 -8
12 -9 28 -1 23 -1 24 7 7 5 -11 9 -23 9 -27z"/>
</g>
</svg>
