<svg xmlns="http://www.w3.org/2000/svg" width="134.274" height="163.224" viewBox="0 0 134.274 163.224">
  <g id="Group_284" data-name="Group 284" transform="translate(0 0)">
    <path id="Path_104" data-name="Path 104" d="M573.746,722.75a12.4,12.4,0,0,1-5.969-1.532,10.842,10.842,0,0,1-5.829-9.55V570.609a10.843,10.843,0,0,1,5.829-9.55,12.345,12.345,0,0,1,12.579.392l110.7,70.529a10.7,10.7,0,0,1,0,18.317l-110.7,70.529A12.289,12.289,0,0,1,573.746,722.75Zm0-160.443a9.624,9.624,0,0,0-4.631,1.189,8.1,8.1,0,0,0-4.386,7.113V711.667a8.1,8.1,0,0,0,4.386,7.113,9.571,9.571,0,0,0,9.747-.3l110.7-70.529a7.92,7.92,0,0,0,0-13.626l-110.7-70.53A9.524,9.524,0,0,0,573.746,562.307Z" transform="translate(-561.948 -559.526)" fill="#fff"/>
  </g>
</svg>
