<?xml version="1.0" encoding="utf-8"?>
<!-- Generator: Adobe Illustrator 23.0.3, SVG Export Plug-In . SVG Version: 6.00 Build 0)  -->
<svg version="1.1" id="Layer_1" xmlns="http://www.w3.org/2000/svg" xmlns:xlink="http://www.w3.org/1999/xlink" x="0px" y="0px"
	 viewBox="0 0 500 500" style="enable-background:new 0 0 500 500;" xml:space="preserve">
<style type="text/css">
	.st0{fill:#FFFFFF;}
</style>
<g>
	<path class="st0" d="M448.02,140.23h-92.79v-31.02c0-32.98-26.83-59.81-59.82-59.81h-90.83c-33.03,0-59.81,26.78-59.81,59.81v31.02
		H51.98c-17.98,0-32.56,14.58-32.56,32.56v245.25c0,17.96,14.61,32.57,32.56,32.57h396.03c17.99,0,32.57-14.58,32.57-32.57V172.79
		C480.58,154.81,466,140.23,448.02,140.23z M155.4,109.21c0-27.17,22.02-49.19,49.19-49.19h90.82c27.13,0,49.19,22.07,49.19,49.19
		v31.02h-25.71v-31.02c0-12.97-10.51-23.48-23.48-23.48h-90.83c-12.97,0-23.48,10.51-23.48,23.48v31.02h-25.7V109.21z
		 M308.27,109.22v31.01H191.73v-31.02c0-7.1,5.75-12.85,12.85-12.85h90.83C302.51,96.36,308.27,102.12,308.27,109.22z
		 M469.95,418.04c0,12.12-9.82,21.94-21.94,21.94H51.98c-12.11,0-21.93-9.82-21.93-21.93V250.77h73.85v12.86
		c0,12.91,10.57,23.48,23.48,23.48h18.16c12.97,0,23.48-10.51,23.48-23.48v-12.86h161.96v12.86c0,12.97,10.51,23.48,23.48,23.48
		h18.16c12.97,0,23.48-10.51,23.48-23.48v-12.86h73.85V418.04z M114.52,263.63v-49.19h43.88v49.19c0,7.08-5.77,12.85-12.86,12.85
		h-18.17C120.28,276.48,114.52,270.71,114.52,263.63z M341.6,263.62v-49.18h43.88v49.19c0,7.1-5.75,12.85-12.85,12.85h-18.17
		C347.36,276.48,341.6,270.72,341.6,263.62z M469.95,240.15H396.1v-36.34h-65.12v36.34H169.02v-36.34H103.9v36.34H30.05v-67.36
		c0-12.11,9.82-21.93,21.93-21.93h396.03c12.1,0,21.94,9.84,21.94,21.93V240.15z"/>
	<path class="st0" d="M311.19,312.81h-25.47c-1.75,0-3.16-1.42-3.16-3.16v-25.47c0-1.75-1.42-3.16-3.16-3.16h-58.81
		c-1.75,0-3.16,1.42-3.16,3.16v25.47c0,1.75-1.42,3.16-3.16,3.16h-25.46c-1.75,0-3.16,1.42-3.16,3.16v58.81
		c0,1.75,1.42,3.16,3.16,3.16h25.46c1.75,0,3.16,1.42,3.16,3.16v25.47c0,1.75,1.42,3.16,3.16,3.16h58.81c1.75,0,3.16-1.42,3.16-3.16
		V381.1c0-1.75,1.42-3.16,3.16-3.16h25.47c1.75,0,3.16-1.42,3.16-3.16v-58.81C314.35,314.22,312.94,312.81,311.19,312.81z
		 M303.73,364.15c0,1.75-1.42,3.16-3.16,3.16h-25.48c-1.75,0-3.16,1.42-3.16,3.16v25.48c0,1.75-1.42,3.16-3.16,3.16h-37.55
		c-1.75,0-3.16-1.42-3.16-3.16v-25.48c0-1.75-1.42-3.16-3.16-3.16h-25.47c-1.75,0-3.16-1.42-3.16-3.16V326.6
		c0-1.75,1.42-3.16,3.16-3.16h25.47c1.75,0,3.16-1.42,3.16-3.16v-25.47c0-1.75,1.42-3.16,3.16-3.16h37.55
		c1.75,0,3.16,1.42,3.16,3.16v25.47c0,1.75,1.42,3.16,3.16,3.16h25.48c1.75,0,3.16,1.42,3.16,3.16V364.15z"/>
	<path class="st0" d="M431.93,167.48h-31.34c-2.84,0-5.21,2-5.53,4.64c-0.19,1.55,0.27,3.04,1.29,4.2c1.01,1.13,2.46,1.79,3.98,1.79
		h31.53c2.83,0,5.21-2,5.53-4.64c0.2-1.67-0.34-3.26-1.53-4.45C434.99,168.13,433.18,167.48,431.93,167.48z"/>
	<path class="st0" d="M123.89,412.83c-0.36-0.07-0.71-0.1-1.06-0.1c-1.41,0-2.74,0.54-3.76,1.56c-1.37,1.37-1.88,3.33-1.34,5.3
		c0.46,1.68,1.81,3.05,3.49,3.54c1.98,0.58,3.97,0.08,5.37-1.33c1.26-1.27,1.79-3.02,1.45-4.81
		C127.65,414.9,125.98,413.23,123.89,412.83z"/>
	<path class="st0" d="M151.14,412.83c-0.36-0.07-0.71-0.1-1.06-0.1c-1.41,0-2.74,0.54-3.76,1.56c-1.37,1.37-1.88,3.33-1.34,5.3
		c0.46,1.68,1.81,3.05,3.49,3.54c1.98,0.58,3.97,0.08,5.37-1.33c1.26-1.27,1.79-3.02,1.45-4.81
		C154.9,414.9,153.23,413.23,151.14,412.83z"/>
	<path class="st0" d="M351.24,412.89c-0.46-0.11-0.89-0.16-1.33-0.16c-1.41,0-2.74,0.54-3.75,1.56c-1.24,1.23-1.78,2.94-1.48,4.7
		c0.36,2.13,2.06,3.87,4.18,4.27c1.79,0.34,3.55-0.19,4.81-1.46c1.27-1.27,1.8-3.03,1.46-4.83
		C354.74,414.99,353.19,413.37,351.24,412.89z"/>
	<path class="st0" d="M378.5,412.89c-0.46-0.11-0.9-0.16-1.33-0.16c-1.41,0-2.74,0.54-3.75,1.56c-1.24,1.23-1.78,2.94-1.48,4.7
		c0.36,2.13,2.06,3.87,4.18,4.27c1.79,0.34,3.55-0.19,4.81-1.46c1.27-1.27,1.8-3.02,1.46-4.81C382,415,380.46,413.38,378.5,412.89z"
		/>
	<path class="st0" d="M374.13,167.58c-0.35-0.07-0.71-0.1-1.06-0.1c-1.41,0-2.74,0.54-3.75,1.56c-1.26,1.26-1.79,3.02-1.46,4.81
		c0.4,2.09,2.07,3.76,4.16,4.16c1.8,0.34,3.55-0.19,4.81-1.46c1.27-1.26,1.8-3.02,1.46-4.81
		C377.89,169.65,376.22,167.98,374.13,167.58z"/>
</g>
</svg>
