<?xml version="1.0" encoding="utf-8"?>
<!-- Generator: Adobe Illustrator 23.0.3, SVG Export Plug-In . SVG Version: 6.00 Build 0)  -->
<svg version="1.1" id="Layer_1" xmlns="http://www.w3.org/2000/svg" xmlns:xlink="http://www.w3.org/1999/xlink" x="0px" y="0px"
	 viewBox="0 0 500 500" style="enable-background:new 0 0 500 500;" xml:space="preserve">
<style type="text/css">
	.st0{fill:#FFFFFF;}
</style>
<g>
	<g>
		<path class="st0" d="M425.77,271.18c19.17-19.11,29.73-44.55,29.73-71.62V83.32c-0.24-13.64-11.42-24.67-25.12-24.67
			c-3.32,0-6.55,0.64-9.61,1.91l-3.87,1.62l-0.89-4.11c-2.49-11.46-12.81-19.79-24.55-19.79c-3.47,0-6.84,0.7-10,2.08l-3.67,1.6
			l-1.1-3.85c-3.06-10.74-12.99-18.24-24.15-18.24s-21.1,7.5-24.16,18.24l-1.1,3.85l-3.67-1.6c-3.16-1.38-6.52-2.08-9.99-2.08
			c-13.86,0-25.12,11.27-25.12,25.12v80.52l-6.05-6.41c-5.95-6.31-14.57-9.18-23.05-7.69c-6.82,1.2-12.73,5.01-16.64,10.72
			c-0.4,0.58-0.78,1.19-1.17,1.88l-1.68,2.99l-3.03-1.63c-6.05-3.26-13.48-3.74-19.97-1.22l-3.73,1.44l-0.94-3.89
			c-2.61-10.8-12.19-18.34-23.29-18.34c-3.12,0-6.16,0.6-9.05,1.78l-3.54,1.45l-1.13-3.66c-3.07-9.94-12.49-16.89-22.9-16.89
			s-19.82,6.95-22.9,16.89L128.3,125l-3.54-1.45c-2.89-1.18-5.93-1.78-9.05-1.78c-13.21,0-23.96,10.75-23.96,23.96v74.39l-5.93-5.72
			c-5.62-5.41-13.53-7.84-21.18-6.5c-6.5,1.15-12.14,4.78-15.87,10.22c-3.73,5.45-5.08,12.02-3.81,18.5l9.61,48.7
			c3.68,18.7,12.77,35.69,26.26,49.14l18.18,18.13v34.15H85.84c-3.1,0-5.62,2.52-5.62,5.62v82.16c0,3.1,2.52,5.62,5.62,5.62
			c3.11,0,5.63-2.52,5.63-5.62v-76.53H217.6v76.53c0,3.1,2.52,5.62,5.62,5.62c3.11,0,5.63-2.52,5.63-5.62v-82.16
			c0-3.1-2.52-5.62-5.63-5.62H210.3v-34.15l11.17-11.13c18.09-18.05,28.06-42.06,28.06-67.63v-54.3l6.69,14.64
			c5.04,11.04,11.96,20.99,20.57,29.58l19.43,19.37v40.66h-14.35c-3.1,0-5.63,2.52-5.63,5.63v145.11c0,3.1,2.53,5.62,5.63,5.62
			c3.1,0,5.63-2.52,5.63-5.62V371.54h47.66c3.11,0,5.63-2.53,5.63-5.63c0-3.1-2.52-5.62-5.63-5.62H287.5v-25.26h134.77v139.49
			c0,3.1,2.52,5.62,5.62,5.62c3.11,0,5.63-2.52,5.63-5.62V329.41c0-3.11-2.52-5.63-5.63-5.63H413.8v-40.67L425.77,271.18z
			 M238.28,273.83c0,22.55-8.79,43.74-24.76,59.66l-12.81,12.78c-1.07,1.06-1.66,2.48-1.66,3.98v36.49h-88.79v-36.49
			c0-1.5-0.59-2.92-1.65-3.98L88.78,326.5c-11.91-11.88-19.92-26.87-23.17-43.36l-9.6-48.7c-0.69-3.5,0.04-7.03,2.05-9.96
			c2-2.93,5.04-4.88,8.54-5.5c6.79-1.19,13.38,3.11,15.02,9.8l4.96,20.24c1.02,4.15,4.84,6.79,9.09,6.28s7.33-3.99,7.33-8.27v-101.3
			c0-7.01,5.7-12.71,12.71-12.71c6.47,0,11.9,4.85,12.63,11.27l0.02,0.4v56.4c0,0.22,0.02,0.44,0.04,0.65l0.03,0.4v5.48
			c0,3.1,2.52,5.63,5.62,5.63c3.11,0,5.63-2.53,5.63-5.63v-61.89c0-0.52-0.02-1.03-0.06-1.55v-15.77c0-7.01,5.7-12.71,12.71-12.71
			s12.72,5.7,12.72,12.71l-0.01,15.76c-0.04,0.52-0.06,1.04-0.06,1.56v55.36c0,0.23,0.02,0.45,0.04,0.66l0.03,0.39v5.48
			c0,3.1,2.52,5.63,5.62,5.63c3.11,0,5.63-2.53,5.63-5.63v-63.14l0.02-0.2c0.74-6.42,6.16-11.26,12.63-11.26
			c7.01,0,12.71,5.7,12.71,12.71l-0.01,17.61c-0.03,0.51-0.05,1.04-0.05,1.56v36.19c0,0.23,0.02,0.45,0.04,0.66l0.02,0.39v5.48
			c0,3.1,2.53,5.63,5.63,5.63c3.1,0,5.63-2.53,5.63-5.63l0.02-44.17c0.74-6.42,6.17-11.27,12.63-11.27
			c7.01,0,12.71,5.71,12.71,12.72V273.83z M404.21,276.8c-1.06,1.05-1.66,2.5-1.66,3.98v43h-95.08v-43c0-1.5-0.59-2.92-1.66-3.98
			l-21.07-21.02c-12.71-12.67-21.26-28.67-24.72-46.26l-10.22-51.77c-0.75-3.8,0.05-7.65,2.24-10.85c2.19-3.2,5.5-5.33,9.31-6
			c7.4-1.3,14.58,3.39,16.37,10.68l5.28,21.51c1.03,4.24,4.94,6.94,9.27,6.42c4.33-0.53,7.48-4.07,7.48-8.44V63.4
			c0-7.65,6.22-13.87,13.87-13.87c7.07,0,12.99,5.3,13.77,12.33l0.03,0.39v59.99c0,0.22,0.01,0.44,0.04,0.65l0.02,0.42v5.87
			c0,3.1,2.53,5.62,5.63,5.62s5.63-2.52,5.63-5.62V63.4c0-0.56-0.03-1.11-0.06-1.66l-0.01-0.22V44.99c0-7.65,6.22-13.87,13.87-13.87
			c7.64,0,13.86,6.22,13.86,13.87v16.75c-0.04,0.55-0.06,1.1-0.06,1.66v58.84c0,0.23,0.02,0.46,0.04,0.68l0.02,0.39v5.87
			c0,3.1,2.53,5.62,5.63,5.62c3.1,0,5.63-2.52,5.63-5.62V62.05l0.02-0.19c0.78-7.03,6.7-12.33,13.78-12.33
			c7.64,0,13.86,6.22,13.86,13.87v18.71c-0.04,0.55-0.06,1.1-0.06,1.66v38.47c0,0.23,0.02,0.46,0.04,0.69l0.02,0.38v5.87
			c0,3.1,2.53,5.62,5.63,5.62c3.1,0,5.63-2.52,5.63-5.62V82.42l0.02-0.2c0.78-7.02,6.71-12.32,13.78-12.32
			c7.64,0,13.87,6.22,13.87,13.87v115.79c0,24.06-9.39,46.67-26.42,63.65L404.21,276.8z"/>
	</g>
	<g>
		<path class="st0" d="M377.3,365.91c0,1.48-0.6,2.93-1.64,3.97c-1.06,1.06-2.51,1.66-3.99,1.66s-2.93-0.61-3.98-1.65
			c-1.05-1.04-1.64-2.49-1.64-3.98c0-1.48,0.59-2.93,1.63-3.97c1.06-1.05,2.51-1.65,3.99-1.65s2.93,0.6,3.98,1.65
			C376.7,362.98,377.3,364.43,377.3,365.91z"/>
	</g>
</g>
</svg>
