<?xml version="1.0" encoding="utf-8"?>
<!-- Generator: Adobe Illustrator 23.0.3, SVG Export Plug-In . SVG Version: 6.00 Build 0)  -->
<svg version="1.1" id="Layer_1" xmlns="http://www.w3.org/2000/svg" xmlns:xlink="http://www.w3.org/1999/xlink" x="0px" y="0px"
	 viewBox="0 0 500 500" style="enable-background:new 0 0 500 500;" xml:space="preserve">
<style type="text/css">
	.st0{fill:#FFFFFF;}
</style>
<g>
	<g>
		<path class="st0" d="M467.75,108.66H265.06c-2.53-0.2-2.78-2.22-2.8-2.83v-6.32c0.02-0.65,0.29-2.85,3.19-2.85h202.29
			c4.97,0,9-4.04,9-9c0-32.53-26.46-59-59-59H278.7l-77.4-17.2c-1.01-0.22-2.04-0.34-3.06-0.34c-7.71,0-13.98,6.28-13.98,14.01v71.7
			c0,0.06-0.01,0.12-0.03,0.18l-70.2,172.88H60.56c-3.46-5.97-9.9-10-17.3-10c-2.77,0-5.4,0.56-7.8,1.58
			c-1.38,0.59-2.69,1.33-3.89,2.2c-5.03,3.62-8.31,9.54-8.31,16.22c0,8.7,5.56,16.11,13.32,18.85c1.4,0.5,2.87,0.85,4.4,1.02
			c0.75,0.09,1.51,0.13,2.28,0.13c7.4,0,13.84-4.03,17.3-10h45.35l-33.09,81.5l-1.85,4.56l-13.95,34.37
			c-1.25,3.07-0.59,6.59,1.66,8.99c11.54,12.25,24.3,23.42,37.95,33.21c1.45,1.04,3.16,1.59,4.93,1.59c0.88,0,1.75-0.13,2.59-0.41
			c11.38-3.72,21.58-9.89,30.01-17.94c1.02-0.97,2.02-1.98,2.99-3.01c6.6-7.01,11.92-15.25,15.64-24.4l30.57-75.28
			c0.1-0.26,0.18-0.3,0.38-0.3c0.52,0,0.52,0.33,0.52,0.48v86.64c0,14.03,4.21,27.09,11.43,38c1.17,1.76,2.41,3.47,3.73,5.12
			c12.67,15.77,32.1,25.88,53.84,25.88c4.96,0,9-4.04,9-9V297.04c5.83-3.49,9.74-9.86,9.74-17.15c0-7.29-3.91-13.66-9.74-17.15
			V180.3c0,0,0.31-3.64,3.75-3.64h151.74c11.28,0,21.84-3.19,30.81-8.71c1.2-0.73,2.37-1.5,3.5-2.32
			c14.94-10.72,24.69-28.23,24.69-47.97C476.75,112.7,472.71,108.66,467.75,108.66z M188.26,333.25c0-2.84-2.26-4.48-4.52-4.48
			c-1.65,0-3.31,0.88-4.09,2.79l-30.56,75.29c-3.69,9.09-8.96,17.06-15.38,23.72c-0.97,1.03-1.98,2.02-3.02,2.98
			c-8.01,7.43-17.52,12.99-27.79,16.35c-0.44,0.14-0.89,0.21-1.34,0.21c-0.92,0-1.83-0.29-2.6-0.84
			c-13.49-9.68-26.01-20.64-37.37-32.7c-1.19-1.27-1.52-3.13-0.87-4.74l13.01-32.05l1.83-4.5l34.67-85.39h78.03V333.25z
			 M188.26,269.89h-69.91l68.03-167.56c0,0,0.58-0.95,1.1-0.95c0.33,0,0.64,0.36,0.78,1.51V269.89z M464.98,116.04
			c-0.29,0.49-0.58,0.96-0.88,1.44c-0.15,0.2-0.29,0.41-0.41,0.61c-6.06,9.2-14.8,16.48-25.11,20.7c-1.29,0.54-2.61,1.02-3.95,1.45
			c-5.32,1.72-11,2.65-16.89,2.65H278.26c-11.04,0-20,8.95-20,20v308.14c-1.21,5.98-7.55,2.68-8.2,2.33
			c-2.04-1.42-4.01-2.95-5.87-4.59c-1.51-1.32-2.96-2.71-4.34-4.16C228.79,452.97,222,437.23,222,419.89V25.55
			c0-4.9,4.13-4.48,4.14-4.48l52.12,11.59h139.48c21.47,0,40.05,12.3,49.11,30.23H278.26c-11.04,0-20,8.95-20,20v25.3
			c0,1.82,1.1,3.46,2.79,4.14c0.53,0.22,1.1,0.33,1.68,0.33h200.05C464.27,112.78,466.26,113.42,464.98,116.04z"/>
	</g>
</g>
</svg>
