<?xml version="1.0" encoding="utf-8"?>
<!-- Generator: Adobe Illustrator 23.0.3, SVG Export Plug-In . SVG Version: 6.00 Build 0)  -->
<svg version="1.1" id="Layer_1" xmlns="http://www.w3.org/2000/svg" xmlns:xlink="http://www.w3.org/1999/xlink" x="0px" y="0px"
	 viewBox="0 0 500 500" style="enable-background:new 0 0 500 500;" xml:space="preserve">
<style type="text/css">
	.st0{fill:#FFFFFF;}
</style>
<path class="st0" d="M467.7,108.7H265.1c-2.5-0.2-2.8-2.2-2.8-2.8v-6.3c0-0.7,0.3-2.8,3.2-2.8h202.3c5,0,9-4,9-9
	c0-32.5-26.5-59-59-59h-139l-77.4-17.2c-1-0.2-2-0.3-3.1-0.3c-7.7,0-14,6.3-14,14v71.7c0,0.1,0,0.1,0,0.2L114,269.9H60.6
	c-3.5-6-9.9-10-17.3-10c-2.8,0-5.4,0.6-7.8,1.6c-1.4,0.6-2.7,1.3-3.9,2.2c-5,3.6-8.3,9.5-8.3,16.2c0,8.7,5.6,16.1,13.3,18.8
	c1.4,0.5,2.9,0.9,4.4,1c0.8,0.1,1.5,0.1,2.3,0.1c7.4,0,13.8-4,17.3-10h45.4l-33.1,81.5l-1.8,4.6l-14,34.4c-1.3,3.1-0.6,6.6,1.7,9
	c11.5,12.3,24.3,23.4,38,33.2c1.5,1,3.2,1.6,4.9,1.6c0.9,0,1.8-0.1,2.6-0.4c11.4-3.7,21.6-9.9,30-17.9c1-1,2-2,3-3
	c6.6-7,11.9-15.3,15.6-24.4l30.6-75.3c0.1-0.3,0.2-0.3,0.4-0.3c0.5,0,0.5,0.3,0.5,0.5v86.6c0,14,4.2,27.1,11.4,38
	c1.2,1.8,2.4,3.5,3.7,5.1c12.7,15.8,32.1,25.9,53.8,25.9c5,0,9-4,9-9V297c5.8-3.5,9.7-9.9,9.7-17.2s-3.9-13.7-9.7-17.2v-82.4
	c0,0,0.3-3.6,3.8-3.6h151.7c11.3,0,21.8-3.2,30.8-8.7c1.2-0.7,2.4-1.5,3.5-2.3c14.9-10.7,24.7-28.2,24.7-48
	C476.7,112.7,472.7,108.7,467.7,108.7z M436.3,133.3c-1.1,0.5-2.2,0.9-3.5,1.3c-4.8,1.6-9.9,2.4-15,2.4H278.3c-14.3,0-26,11.7-26,26
	v304.7c-1.5-1.1-2.8-2.2-4.1-3.3c-1.4-1.2-2.7-2.5-3.9-3.8c-10.5-11-16.2-25.4-16.2-40.6V27.6l49,10.9l0.6,0.1h140.1
	c15.1,0,29,6.8,38.2,18.2H278.3c-14.3,0-26,11.7-26,26v25.3c0,4.3,2.5,8.1,6.5,9.7c1.3,0.5,2.6,0.8,4,0.8h193.1
	C450.7,125.1,444,130.1,436.3,133.3z"/>
</svg>
