<?xml version="1.0" encoding="utf-8"?>
<!-- Generator: Adobe Illustrator 23.0.3, SVG Export Plug-In . SVG Version: 6.00 Build 0)  -->
<svg version="1.1" id="Layer_1" xmlns="http://www.w3.org/2000/svg" xmlns:xlink="http://www.w3.org/1999/xlink" x="0px" y="0px"
	 viewBox="0 0 500 500" style="enable-background:new 0 0 500 500;" xml:space="preserve">
<style type="text/css">
	.st0{fill:#FFFFFF;}
</style>
<g>
	<path class="st0" d="M412.24,144.42c2.88,0,5.22-2.34,5.22-5.22c0-2.88-2.34-5.22-5.22-5.22c-2.87,0-5.21,2.34-5.21,5.22
		C407.03,142.08,409.37,144.42,412.24,144.42z"/>
	<path class="st0" d="M439.9,161.63c-2.88,0-5.22,2.34-5.22,5.22c0,12.37-10.07,22.44-22.44,22.44c-12.37,0-22.43-10.07-22.43-22.44
		c0-0.9,0.05-1.74,0.14-2.49c0.16-1.38-0.23-2.74-1.09-3.84c-0.87-1.09-2.1-1.78-3.49-1.95c-0.21-0.02-0.41-0.03-0.61-0.03
		c-2.64,0-4.87,1.98-5.18,4.61c-0.14,1.15-0.21,2.4-0.21,3.7c0,18.13,14.74,32.88,32.87,32.88c18.13,0,32.88-14.75,32.88-32.88
		C445.12,163.97,442.78,161.63,439.9,161.63z"/>
	<path class="st0" d="M412.24,97.1c-38.46,0-69.75,31.29-69.75,69.75c0,28.51,17.12,53.89,43.61,64.65l2.49,1.02v98.43
		c0,53.69-50.98,100.79-109.1,100.79c-29.38,0-59.57-13.67-80.76-36.57c-19.95-21.55-29.78-48.32-27.68-75.38l0.23-2.87l2.79-0.69
		c42.6-10.64,74.47-45.66,81.2-89.22l19.81-120.06c5.37-31.1-14.38-61.44-44.96-69.08l-7.6-1.89l-0.85-1.51
		c-5.79-10.27-16.74-16.65-28.59-16.65c-18.13,0-32.88,14.75-32.88,32.88c0,18.12,14.75,32.87,32.88,32.87
		c4.12,0,8.34-0.82,12.2-2.36l1.2-0.48l12.16,3.05c6.68,1.67,10.99,8.29,9.83,15.07l-6,34.7l-13.9,85.9
		c-4.71,30.6-30.61,52.81-61.59,52.81c-30.98,0-56.9-22.36-61.64-53.18L65.5,98.81c-1.18-6.75,3.14-13.36,9.83-15.04l12.16-3.04
		l1.2,0.48c3.93,1.57,8.03,2.36,12.2,2.36c18.13,0,32.87-14.75,32.87-32.87c0-18.13-14.74-32.88-32.87-32.88
		c-11.85,0-22.81,6.38-28.6,16.66l-0.84,1.5l-7.6,1.89c-30.59,7.64-50.35,37.94-44.97,68.98l19.76,119.78
		c6.79,44.03,38.94,79.26,81.89,89.76l3.21,0.77l-0.16,3.3c-1.9,39.9,13.95,80.55,43.49,111.53c30.2,31.67,71.17,49.83,112.42,49.83
		c83.32,0,156.41-69.21,156.41-148.11V232.52l2.49-1.02c26.49-10.76,43.6-36.14,43.6-64.65C481.99,128.39,450.7,97.1,412.24,97.1z
		 M193.08,73.13c-12.37,0-22.44-10.06-22.44-22.43c0-12.37,10.07-22.44,22.44-22.44c12.37,0,22.43,10.07,22.43,22.44
		C215.51,63.07,205.45,73.13,193.08,73.13z M100.89,28.26c12.37,0,22.44,10.07,22.44,22.44c0,12.37-10.07,22.43-22.44,22.43
		S78.45,63.07,78.45,50.7C78.45,38.33,88.52,28.26,100.89,28.26z M48.96,225.04l-0.02-0.12L29.17,105.1
		c-4.19-24.23,10.28-48.34,33.67-56.06l4.94-1.64l0.3,5.21c0.32,5.54,2.05,10.95,5.02,15.65l2.71,4.3l-4.82,1.63
		c-10.97,3.69-17.75,15.03-15.77,26.37l19.81,120.12c5.55,35.94,35.81,62.02,71.95,62.02c36.17,0,66.41-25.92,71.89-61.62
		l13.9-85.89l5.97-34.55c1.98-11.39-4.8-22.76-15.77-26.45l-4.83-1.63l2.72-4.3c2.98-4.7,4.71-10.1,5.02-15.65l0.31-5.21l4.94,1.64
		c23.39,7.73,37.86,31.87,33.66,56.17l-19.84,120.25c-3.55,23.05-15.25,44.2-32.94,59.56c-17.94,15.55-41.03,24.11-65.01,24.11
		h-0.26C97.55,309,56.43,273.63,48.96,225.04z M425.46,333.71c0,73.34-68.21,137.67-145.97,137.67c-37.93,0-75.8-16.62-103.91-45.6
		c-27.6-28.46-42.78-65.89-41.65-102.7l0.13-4.19l4.18,0.33c2.99,0.23,5.94,0.35,8.74,0.35c2.94,0,6-0.13,9.09-0.38l4.48-0.36
		l-0.16,4.5c-1.05,29.32,10.45,57.99,32.39,80.74c23.36,24.22,54.96,38.11,86.71,38.11c63.68,0,119.54-51.98,119.54-111.23v-95.46
		l4.49,0.56c5.87,0.74,11.57,0.74,17.44,0l4.5-0.56V333.71z M453.73,209.16c-5.57,5.48-12.04,9.73-19.06,12.61
		c-7.03,2.87-14.62,4.38-22.42,4.38h-0.98c-32.18-0.53-58.34-27.13-58.34-59.3c0-32.7,26.61-59.31,59.31-59.31
		c32.71,0,59.32,26.61,59.32,59.31C471.56,182.59,465.06,198.01,453.73,209.16z"/>
</g>
</svg>
