<?xml version="1.0" encoding="utf-8"?>
<!-- Generator: Adobe Illustrator 23.0.3, SVG Export Plug-In . SVG Version: 6.00 Build 0)  -->
<svg version="1.1" id="Layer_1" xmlns="http://www.w3.org/2000/svg" xmlns:xlink="http://www.w3.org/1999/xlink" x="0px" y="0px"
	 viewBox="0 0 500 500" style="enable-background:new 0 0 500 500;" xml:space="preserve">
<style type="text/css">
	.st0{fill:#0B0000;}
	.st1{fill:#E18E5A;}
</style>
<g>
	<path class="st0" d="M467.8,256.9c-1.6-1.7-3.8-2.7-6.1-2.7c-1.1,0-2.2-0.1-3.2-0.3c-13-2.2-21.7-14.5-19.6-27.5
		c0.1-0.8,0.3-1.6,0.5-2.4c1-3.7-0.5-7.6-3.8-9.5c-14.3-8.5-22.1-25.3-19.3-41.8c1.1-6.7,4-13.1,8.2-18.5c1.9-2.3,2.3-5.5,1.3-8.3
		c-1.1-2.8-3.6-4.8-6.5-5.3l-4.3-0.7c-1.8-0.3-3.8,0-5.4,0.9c-9.2,4.9-19.4,6.6-29.7,4.9c-25.2-4.2-42.2-28.2-38-53.3
		c0.8-4.6,2.2-9.1,4.3-13.3c2-3.9,0.6-8.7-3-11c-3.7-2.3-8.5-1.5-11.2,2c-11.1,14.3-29.2,21.3-47,18.3c-24.1-4-41.7-25.5-41-49.9
		c0.1-2.4-0.9-4.7-2.6-6.3c-1.7-1.7-4-2.5-6.5-2.4c-51.3,3.4-100.1,25-137.4,60.7C78.2,109,62.5,130.6,51,154.8
		c-8.8,18.5-15,38.1-18.5,58.5c-4.6,27.1-4.1,54.2,1.2,80.3c4.4,21.9,12.3,43,23.4,63.1c21.9,39.5,55.7,71.6,96,91.3
		c3.3,1.6,6.7,3.2,10.1,4.6c16,6.9,32.9,11.8,50.2,14.7c5.5,0.9,11,1.6,16.5,2.1c2.8,0.3,5.7,0.5,8.5,0.6c1.5,0.1,3,0.1,4.5,0.2
		c2.4,0.1,4.8,0.1,7.3,0.1c36.6,0,72.7-9.2,105-26.8c35.3-19.2,64.6-47.6,84.9-82.1c13-22.2,22-46.3,26.7-71.7
		c0.2-1.1,0.4-2.2,0.6-3.4c1.3-7.9,2.2-15.7,2.6-23.2C470.1,260.9,469.3,258.6,467.8,256.9z M84.3,131.5c2.6-3.6,5.3-7.2,8.2-10.7
		c0.1-0.1,0.2-0.2,0.3-0.4c2.9-3.5,5.9-7,9.1-10.3c0,0,0,0,0-0.1c2.2-2.3,4.4-4.5,6.6-6.7c1.1,0.5,2.2,1.1,3.2,1.8
		c10.4,6.5,17.1,18,17.1,30.7c0,6.8-1.9,13.2-5.2,18.6c-1.4,2.4-3.1,4.6-5,6.6c-6.6,6.8-15.8,11-25.9,11c-9.9,0-19.2-4-26-11
		C71.7,150.8,77.6,140.9,84.3,131.5z M230.6,452.4c-1.7-0.2-3.4-0.4-5.1-0.6c-3.1-0.4-6.2-0.8-9.3-1.3c-14.6-2.5-28.8-6.5-42.4-12
		c1.8-3.4,4.2-6.5,7-9.1c0.2-0.2,0.4-0.4,0.6-0.5c5.7-4.9,13.2-7.8,21.2-7.8c17.6,0,32,14.1,32.5,31.7
		C233.5,452.7,232.1,452.6,230.6,452.4z M448.2,295.7c-4.3,18.5-11,36.1-20.1,52.6c-2.4-2.2-4.4-4.8-6-7.6
		c-2.8-4.9-4.4-10.4-4.4-16.3c0-9.6,4.2-18.2,10.8-24.1c2.5-2.3,5.5-4.2,8.6-5.6c3.7-1.6,7.7-2.6,11.9-2.7
		C448.8,293.2,448.5,294.4,448.2,295.7z M450.8,282.7c-0.2,0-0.3,0-0.5,0c-5.6,0-11,1.1-15.9,3.1c-9.7,4-17.6,11.6-22,21.1
		c-2.5,5.3-3.9,11.3-3.9,17.5c0,12.5,5.5,24.1,14.9,32c-7.5,12.2-16.1,23.4-25.7,33.6c-39.3,41.6-94.7,65-153.3,63.3
		c-0.2-22.9-18.9-41.4-41.8-41.4c-16.1,0-30.4,9.1-37.3,23c-83.8-38.2-131.4-127.5-116-218.8c1.4-8.2,3.3-16.3,5.6-24.3
		c2.2-7.4,4.8-14.7,7.8-21.8c0.3,0.2,0.5,0.4,0.8,0.6c0.3,0.3,0.5,0.5,0.8,0.7c0.5,0.4,1.1,0.8,1.6,1.3c0.3,0.3,0.7,0.5,1,0.7
		c7.5,5.2,16.4,8.1,25.8,8.1c9.8,0,19-3.2,26.4-8.5c11.5-8.2,19-21.7,19-36.9c0-14.7-7.1-28.1-18.4-36.5c-1.3-1-2.6-1.8-4-2.6
		c31.4-27.5,70.5-44.8,111.8-49.4c3.3,28.8,25.5,52.7,54.7,57.6c14.7,2.5,29.5-0.1,42.2-6.9c-0.9,31.1,21.3,58.9,52.8,64.2
		c8.3,1.4,16.5,1.1,24.5-0.7c-0.9,2.7-1.5,5.4-2,8.1c-3.6,21.3,5.3,43,22.3,55.8c-2.4,20.3,10.8,39.4,30.6,44.3
		C452,274.1,451.4,278.4,450.8,282.7z"/>
	<path class="st1" d="M448.2,295.7c-4.3,18.5-11,36.1-20.1,52.6c-2.4-2.2-4.4-4.8-6-7.6c-1.7-3.9-2.6-8.3-2.6-12.7
		c0-9.6,4.2-18.2,10.8-24.1c2.5-2.3,5.5-4.2,8.6-5.6C441.8,296.9,444.9,296.1,448.2,295.7z"/>
	<path class="st1" d="M230.6,452.4c-1.7-0.2-3.4-0.4-5.1-0.6c-3.1-0.4-6.2-0.8-9.3-1.3c-14.6-2.5-28.8-6.5-42.4-12
		c1.8-3.4,4.2-6.5,7-9c0.2-0.2,0.4-0.4,0.6-0.5c5-3.1,10.8-4.8,17-4.8C214.9,424.2,228.5,436.5,230.6,452.4z"/>
	<g>
		<path class="st1" d="M123.3,143.4c0,6.5-1.7,12.5-4.7,17.8c-6.6,6.8-15.8,11-25.9,11c-9.9,0-19.2-4-26-11
			c5-10.4,10.9-20.3,17.6-29.6c5.7-7.3,10.9-14.9,17.6-21.3c1.1,0.5,3.3,1.8,4.3,2.5C116.6,119.2,123.3,130.7,123.3,143.4z"/>
		<g>
			<path class="st1" d="M418.3,286.1c-12.3-9.4-19.5-24.2-19.1-39.8c-16.4-14.2-24.9-36.5-22.3-58c-1.2,0.1-2.4,0.1-3.5,0.1
				c-3.9,0-8-0.3-11.9-1c-30.6-5.2-54.4-29.9-58.8-60.2c-7.7,2.6-15.8,3.9-23.8,3.9c-0.4,0-0.9,0-1.3,0
				c15.4,9.4,25.7,26.4,25.7,45.7c0,17.2-8.4,33.5-22.4,43.5c-9.1,6.5-19.9,10-31.1,10c-29.5,0-53.5-24-53.5-53.5
				c0-8.2,1.8-16.1,5.4-23.5c8.5-17.3,25.2-28.5,44.2-29.9c-19.7-9.7-34.4-27.9-39.4-49.9c-26,3.9-51.2,13.2-73.7,27.1
				c8.6,9.7,13.4,22.3,13.4,35.4c0,17.2-8.4,33.4-22.4,43.5c-9.1,6.5-19.9,10-31.1,10c-9.2,0-18.3-2.4-26.3-6.9
				c-1.4,3.8-2.7,7.7-3.8,11.6c-2.3,7.7-4.1,15.5-5.4,23.3c-7.2,43-0.3,86,20,124.2c19.1,36,48.4,64.6,84.9,82.8
				c9.3-13,24.1-20.7,40.4-20.7c24.3,0,45.1,17.9,49.1,41.4c26.3-0.2,51.9-5.5,76-16c24.3-10.5,45.8-25.6,64.1-44.9
				c7.8-8.3,15-17.3,21.3-26.8c-8.1-9.1-12.6-21-12.6-33.2c0-7.3,1.6-14.4,4.7-21C408.1,296.7,412.7,290.8,418.3,286.1z
				 M208.8,347.6c-11.5,9.2-25.9,14.2-40.6,14.2c-36,0-65.2-29.3-65.2-65.2c0-11.1,2.8-22,8.2-31.6c11.5-20.7,33.4-33.6,57-33.6
				c36,0,65.2,29.3,65.2,65.2C233.4,316.6,224.4,335.2,208.8,347.6z M351.6,365.6c-8.3,5.7-18,8.7-28,8.7
				c-27.5,0-49.9-22.4-49.9-49.8c0-7.3,1.6-14.4,4.7-21c8.1-17.5,25.9-28.9,45.2-28.9c27.5,0,49.8,22.4,49.8,49.9
				C373.4,340.9,365.2,356.3,351.6,365.6z"/>
		</g>
		<path class="st0" d="M249.7,131.4c-17.9,0-33.4,10.4-40.8,25.5c-3,6-4.6,12.8-4.6,19.9c0,14.1,6.4,26.7,16.5,35c0,0,0,0,0,0
			c0.5,0.5,1.1,0.9,1.7,1.3c0.5,0.4,1.1,0.8,1.6,1.1c7.3,5,16.1,7.9,25.6,7.9c9.8,0,19-3.1,26.4-8.5c11.5-8.2,19-21.7,19-36.9
			C295.1,151.7,274.7,131.4,249.7,131.4z M280.7,195.4c-1.4,2.3-3.1,4.5-5,6.5c-6.6,6.8-15.8,11-25.9,11c-20,0-36.2-16.2-36.2-36.2
			c0-6.5,1.7-12.5,4.7-17.8c2.1-3.7,4.8-7,8-9.7c6.3-5.4,14.5-8.6,23.4-8.6c19.9,0,36.2,16.2,36.2,36.2
			C285.9,183.6,284,190,280.7,195.4z"/>
		<path class="st0" d="M323.5,282.6c-16.8,0-31.3,9.9-37.9,24.2c-2.5,5.3-3.9,11.3-3.9,17.5c0,12.5,5.6,23.8,14.3,31.5
			c0.4,0.3,0.7,0.6,1.1,0.9c0.8,0.7,1.7,1.4,2.6,2c6.7,4.7,14.9,7.4,23.7,7.4c8.7,0,16.8-2.7,23.5-7.3c11-7.5,18.3-20.2,18.3-34.5
			C365.3,301.4,346.5,282.6,323.5,282.6z M350.9,341.9c-1.3,2-2.7,3.8-4.4,5.4c-5.9,5.9-14,9.6-23,9.6c-17.9,0-32.5-14.6-32.5-32.5
			c0-5.7,1.5-11,4-15.7c1.8-3.2,4-6,6.7-8.5c5.8-5.2,13.4-8.4,21.8-8.4c17.9,0,32.5,14.6,32.5,32.5
			C356,330.9,354.1,336.9,350.9,341.9z"/>
		<path class="st0" d="M168.1,239.5c-21.5,0-40.2,11.9-50,29.4c-4.6,8.2-7.2,17.7-7.2,27.7c0,17.9,8.3,33.9,21.2,44.3
			c1.2,1,2.4,1.9,3.7,2.8c9.2,6.3,20.3,10,32.3,10c13.5,0,25.8-4.7,35.6-12.5c13.1-10.5,21.6-26.6,21.6-44.7
			C225.3,265.1,199.6,239.5,168.1,239.5z M203.5,328.9c-8.8,9.6-21.4,15.6-35.3,15.6c-26.4,0-47.9-21.5-47.9-47.9
			c0-9.1,2.5-17.6,7-24.9c3.2-5.3,7.4-9.8,12.3-13.5c8-6,17.9-9.5,28.6-9.5c26.4,0,47.9,21.5,47.9,47.9c0,7.9-1.9,15.4-5.4,22
			C208.7,322.4,206.3,325.8,203.5,328.9z"/>
		<path class="st1" d="M350.5,331.8c0,5.6-1.4,10.9-4,15.5c-5.9,5.9-14,9.6-23,9.6c-17.9,0-32.5-14.6-32.5-32.5c0-5.7,1.5-11,4-15.7
			c0.4-0.4,0.7-0.7,1.1-1.1c5.8-5.2,13.4-8.4,21.8-8.4C335.9,299.3,350.5,313.9,350.5,331.8z"/>
		<path class="st1" d="M280.3,184.2c0,6.4-1.7,12.5-4.7,17.7c-6.6,6.8-15.8,11-25.9,11c-19.9,0-36.2-16.2-36.2-36.2
			c0-6.5,1.7-12.5,4.7-17.8c0.8-0.8,1.6-1.6,2.5-2.3c6.3-5.4,14.5-8.6,23.4-8.6C264.1,148,280.3,164.2,280.3,184.2z"/>
		<path class="st1" d="M210.5,304.1c0,7.9-1.9,15.4-5.3,22c-0.5,1-1.1,2-1.6,2.9c-8.8,9.6-21.4,15.6-35.3,15.6
			c-26.4,0-47.9-21.5-47.9-47.9c0-9.1,2.5-17.6,7-24.9c2-2.3,4.3-4.3,6.7-6.1c8-6,17.9-9.5,28.6-9.5
			C189,256.1,210.5,277.6,210.5,304.1z"/>
	</g>
</g>
</svg>
