<?xml version="1.0" encoding="utf-8"?>
<!-- Generator: Adobe Illustrator 23.0.3, SVG Export Plug-In . SVG Version: 6.00 Build 0)  -->
<svg version="1.1" id="Layer_1" xmlns="http://www.w3.org/2000/svg" xmlns:xlink="http://www.w3.org/1999/xlink" x="0px" y="0px"
	 viewBox="0 0 350 126" style="enable-background:new 0 0 350 126;" xml:space="preserve">
<style type="text/css">
	.st0{fill:#FFFFFF;}
	.st1{fill:#F11267;}
</style>
<g id="Group_96" transform="translate(217.185 8)">
	<g id="Group_94" transform="translate(0)">
		<g id="Group_92">
			<path id="Path_226" class="st0" d="M-203.5,1.8l-2.9-0.3l0.1,2.9l0.5,61.7V69l2.9-0.3l11.2-1v10.6l-23.3-0.1l-1.7-86l25,0.2V2.7
				L-203.5,1.8z"/>
		</g>
		<g id="Group_93" transform="translate(17.053 3.941)">
			<path id="Path_227" class="st0" d="M-181.9,6.7l13.9-1.1v9.5l10-0.5l-0.2,11.7l-9.7,0.6l0.6,18.7c0,1.3,0.4,2.5,1.1,3.5
				c1,1.3,2.7,1.9,4.3,1.6c2.2-0.1,4.3-0.8,6.2-1.8l2.5,10.1c-4.2,3-9.3,4.6-14.5,4.4c-3.5,0.1-6.8-1.2-9.3-3.6
				c-1.8-1.8-3-4.1-3.3-6.6c-0.2-1-0.3-1.9-0.4-2.9c-0.1-0.5-0.1-0.9-0.1-1.4c0-0.3-0.1-2.6-0.1-3l-0.3-18.5l-7.5,0.2l-0.4-11.4
				l7.7-0.2L-181.9,6.7z"/>
			<path id="Path_228" class="st0" d="M-111.8,24.8c3.6,5.1,5.3,11.3,4.5,17.5c-0.4,2.3-0.6,6.4,1,8.1c1.6,1.4,3.6,2.2,5.8,2.2
				l-1.6,10.2c-1.5,0.5-3.1,0.7-4.7,0.7c-1.9,0.1-3.7-0.3-5.4-1.1c-1.8-0.9-3.1-2.5-3.7-4.4c-3.4,3.8-8.4,5.7-13.5,5.3
				c-6,0.3-11.9-2.3-15.6-7.1c-3.3-4.3-5-9.6-4.9-15c-0.2-6.7,2.3-13.2,7.1-17.9c4.2-3.9,9.8-5.9,15.5-5.6
				C-121.4,17.5-115.6,20.1-111.8,24.8z M-137.1,40.7c-0.1,6.2,3,11.7,8.7,11.7c5.8,0.1,8.8-4.2,9.1-10.4c0.2-3.1-0.4-6.3-2-9
				c-1.3-2.5-3.9-3.9-6.7-3.8C-133.9,29.3-137.1,34.5-137.1,40.7L-137.1,40.7z"/>
			<path id="Path_229" class="st0" d="M-65.9,34.1c-2.3-3.2-6.1-5.1-10-5.2c-2.8,0-5.4,1.4-7,3.8c-1.7,2.9-2.4,6.3-2,9.6
				c0.2,5.6,3.4,10.2,8.9,10.3c4.7,0.1,7.4-1.7,10.7-5.3l5.8,7.6c-3.8,5.7-10.4,9-17.3,8.6c-5.1,0.2-10.1-1.5-14-4.8
				c-4.8-4.4-7.4-10.7-7-17.2c-0.2-5.6,1.5-11.1,4.8-15.7c4.1-5.4,10.7-8.5,17.5-8.2c6.2-0.3,12.1,2.8,15.4,8.1L-65.9,34.1z"/>
			<path id="Path_230" class="st0" d="M-48.9,28.2c2-0.1,4,0.6,5.5,2.1c2.8,2.9,2.7,7.5-0.1,10.4c-1.5,1.4-3.5,2.2-5.6,2.1
				c-4,0.2-7.5-2.9-7.6-7c-0.1-2.1,0.7-4.1,2.2-5.6C-53,28.8-51,28-48.9,28.2z M-48.9,49.5c2-0.1,4,0.6,5.5,2.1
				c2.8,2.9,2.7,7.5-0.1,10.4c-1.5,1.4-3.5,2.2-5.6,2.1c-4,0.2-7.5-2.9-7.6-7c-0.1-2.1,0.7-4.1,2.2-5.6C-53,50.1-51,49.4-48.9,49.5
				L-48.9,49.5z"/>
			<path id="Path_231" class="st0" d="M-30.7,6.7l13.9-1.1v9.5l10-0.5l-0.2,11.7l-9.7,0.6l0.6,18.7c0,1.3,0.4,2.5,1.1,3.5
				c1,1.3,2.7,1.9,4.3,1.6c2.2-0.1,4.3-0.8,6.2-1.8L-2.1,59c-4.2,3-9.3,4.6-14.5,4.4c-3.5,0.1-6.8-1.2-9.3-3.6
				c-1.8-1.8-3-4.1-3.3-6.6c-0.2-1-0.3-1.9-0.4-2.9c-0.1-0.5-0.1-0.9-0.1-1.4c0-0.3-0.1-2.6-0.1-3l-0.3-18.5l-7.5,0.2L-38,16.4
				l7.7-0.2L-30.7,6.7z"/>
			<path id="Path_232" class="st0" d="M9.8-1.3c4.4-0.4,8.4,2.8,8.8,7.2c0,0.2,0,0.3,0,0.5c0,4.9-4,7.7-8.7,8C5.7,15,1.7,12,1.1,7.7
				C1.1,7.3,1,6.9,1.1,6.5C1.3,2,5.1-1.6,9.7-1.3C9.7-1.3,9.8-1.3,9.8-1.3z M2.6,20.4l14.8-1.2l-0.5,43.3L3.9,64L2.6,20.4z"/>
			<path id="Path_233" class="st0" d="M55.4,34.1c-2.3-3.2-6.1-5.1-10-5.2c-2.8,0-5.4,1.4-7,3.8c-1.7,2.9-2.4,6.3-2,9.6
				c0.2,5.6,3.4,10.2,8.9,10.3c4.7,0.1,7.4-1.7,10.7-5.3l5.8,7.6c-3.8,5.7-10.4,9-17.3,8.6c-5.1,0.2-10.1-1.5-14-4.8
				c-4.8-4.4-7.4-10.7-7-17.2c-0.2-5.6,1.5-11.1,4.8-15.7c4.1-5.4,10.7-8.5,17.5-8.2c6.2-0.3,12.1,2.8,15.4,8.1L55.4,34.1z"/>
		</g>
		<path id="Path_234" class="st0" d="M109.7,57.9l10.8,1l0.4-47.2l-11.2,0.9V0.5L133,0.3l-1.4,69.9l-21.9,0.1L109.7,57.9z"/>
	</g>
	<g id="Group_95" transform="translate(23.106 39.054)">
		<path id="Path_235" class="st1" d="M-195.2,75.3l0.8-1.3c2.1,2,4.9,3,7.8,3c4.7,0,6.8-2.1,6.8-4.6c0-7.1-14.8-2.8-14.8-11.6
			c0-3.4,2.6-6.3,8.4-6.3c2.5,0,5,0.7,7.2,2.1l-0.6,1.4c-1.9-1.3-4.2-2-6.5-2c-4.6,0-6.7,2.1-6.7,4.7c0,7.1,14.8,2.9,14.8,11.5
			c0,3.4-2.7,6.3-8.5,6.3C-189.8,78.6-192.9,77.4-195.2,75.3z"/>
		<path id="Path_236" class="st1" d="M-143.5,56.1h-8.5v-1.6h18.8v1.6h-8.5v22.2h-1.7V56.1z"/>
		<path id="Path_237" class="st1" d="M-105.2,68.3V54.6h1.7v13.6c0,5.9,2.9,8.7,7.8,8.7c4.9,0,7.8-2.8,7.8-8.7V54.6h1.7v13.7
			c0,6.8-3.6,10.2-9.5,10.2S-105.2,75-105.2,68.3z"/>
		<path id="Path_238" class="st1" d="M-53.6,54.6h9.4c6.6-0.4,12.2,4.6,12.6,11.2c0.4,6.6-4.6,12.2-11.2,12.6c-0.5,0-0.9,0-1.4,0
			h-9.4L-53.6,54.6z M-44.3,76.8c5.7,0.4,10.6-3.9,11-9.6c0.4-5.7-3.9-10.6-9.6-11c-0.5,0-0.9,0-1.4,0h-7.5v20.6H-44.3z"/>
		<path id="Path_239" class="st1" d="M-1.1,54.6h1.7v23.7h-1.7V54.6z"/>
		<path id="Path_240" class="st1" d="M31.1,66.5c-0.2-6.8,5.2-12.5,12-12.7c6.8-0.2,12.5,5.2,12.7,12c0.2,6.8-5.2,12.5-12,12.7
			c-0.1,0-0.2,0-0.3,0c-6.6,0.3-12.1-4.9-12.3-11.4C31.1,66.9,31.1,66.7,31.1,66.5z M54,66.5c0.1-5.9-4.6-10.7-10.4-10.7
			c-5.9-0.1-10.7,4.6-10.7,10.4c-0.1,5.9,4.6,10.7,10.4,10.7c0.1,0,0.1,0,0.2,0c5.7,0.2,10.4-4.3,10.6-9.9C54,66.8,54,66.6,54,66.5
			L54,66.5z"/>
	</g>
</g>
</svg>
