<?xml version="1.0" encoding="iso-8859-1"?>
<!-- Generator: Adobe Illustrator 19.0.0, SVG Export Plug-In . SVG Version: 6.00 Build 0)  -->
<svg version="1.1" id="Capa_1" xmlns="http://www.w3.org/2000/svg" xmlns:xlink="http://www.w3.org/1999/xlink" x="0px" y="0px"
	 viewBox="0 0 512 512" style="enable-background:new 0 0 512 512;" xml:space="preserve">
<rect x="196" style="fill:#0C61C6;" width="120" height="38.5"/>
<rect x="256" style="fill:#0A4EAF;" width="60" height="38.5"/>
<path style="fill:#66E26F;" d="M451,512H61V30h390V512z"/>
<path style="fill:#48CC4E;" d="M451,512H256V30h195V512z"/>
<path style="fill:#DCF4FF;" d="M391,452H121V90h270V452z"/>
<path style="fill:#CCEFFF;" d="M391,452H256V90h135V452z"/>
<path style="fill:#FF6849;" d="M263.071,224.431L256,231.503l-7.071-7.071c-11.716-11.716-30.711-11.716-42.426,0l0,0
	c-11.716,11.716-11.716,30.711,0,42.426L256,316.355l49.497-49.497c11.716-11.716,11.716-30.711,0-42.426l0,0
	C293.782,212.716,274.787,212.716,263.071,224.431z"/>
<path style="fill:#FD4B2D;" d="M305.497,224.432L305.497,224.432c-11.716-11.716-30.711-11.716-42.426,0l-7.071,7.07v84.853
	l49.497-49.498C317.213,255.142,317.213,236.147,305.497,224.432z"/>
<g>
</g>
<g>
</g>
<g>
</g>
<g>
</g>
<g>
</g>
<g>
</g>
<g>
</g>
<g>
</g>
<g>
</g>
<g>
</g>
<g>
</g>
<g>
</g>
<g>
</g>
<g>
</g>
<g>
</g>
</svg>
