<?xml version="1.0" encoding="utf-8"?>

<!-- Generator: Adobe Illustrator 23.0.3, SVG Export Plug-In . SVG Version: 6.00 Build 0)  -->

<svg version="1.1" id="Layer_1" xmlns="http://www.w3.org/2000/svg" xmlns:xlink="http://www.w3.org/1999/xlink" x="0px" y="0px"

	 viewBox="0 0 61 61" style="enable-background:new 0 0 61 61;" xml:space="preserve">

<style type="text/css">

	.st0{fill:#25A8E0;}

</style>

<g>

	<path class="st0" d="M30.5,5.5c-13.8,0-25,11.2-25,25s11.2,25,25,25s25-11.2,25-25S44.3,5.5,30.5,5.5z M30.5,53.5

		c-12.7,0-23-10.3-23-23s10.3-23,23-23s23,10.3,23,23S43.2,53.5,30.5,53.5z"/>

</g>

<g>

	<path class="st0" d="M30.5,20.8c1.3,0,2.3-0.4,3.1-1.1c0.8-0.8,1.2-1.7,1.2-2.9c0-1.1-0.4-2-1.2-2.7c-0.8-0.7-1.8-1.1-3.1-1.1

		c-1.3,0-2.3,0.4-3.1,1.1c-0.8,0.7-1.2,1.7-1.2,2.8s0.4,2,1.2,2.8C28.2,20.4,29.2,20.8,30.5,20.8z"/>

	<rect x="27.1" y="24.1" class="st0" width="6.9" height="23.9"/>

</g>

</svg>

