<?xml version="1.0" encoding="iso-8859-1"?>
<!-- Generator: Adobe Illustrator 19.0.0, SVG Export Plug-In . SVG Version: 6.00 Build 0)  -->
<svg version="1.1" id="Capa_1" xmlns="http://www.w3.org/2000/svg" xmlns:xlink="http://www.w3.org/1999/xlink" x="0px" y="0px"
	 viewBox="0 0 512 512" style="enable-background:new 0 0 512 512;" xml:space="preserve">
<path style="fill:#42464A;" d="M253.494,512c-12.729,0-23.047-10.318-23.047-23.047V291.972c0-12.728,10.318-23.047,23.047-23.047
	s23.047,10.318,23.047,23.047v196.981C276.54,501.682,266.223,512,253.494,512z"/>
<path style="fill:#50555A;" d="M197.858,512c-12.729,0-23.047-10.318-23.047-23.047V291.972c0-12.728,10.318-23.047,23.047-23.047
	s23.047,10.318,23.047,23.047v196.981C220.905,501.682,210.587,512,197.858,512z"/>
<path style="fill:#FFB69E;" d="M371.385,1.086c-10.008-3.508-20.969,1.761-24.478,11.771l-26.684,76.124l-59.436,31.703
	c-16.94,0-65.276,0-86.87,0c-25.326,0-46.033,20.287-46.159,45.319V307.1c0,10.607,8.599,19.206,19.206,19.206
	s19.206-8.599,19.206-19.206l-0.001-141c0.019-3.666,3.711-7.003,7.748-7.003h0.895v145.642h101.729V155.815l68.368-36.467
	c4.25-2.267,7.493-6.047,9.086-10.593l29.161-83.192C386.665,15.554,381.394,4.595,371.385,1.086z"/>
<path style="fill:#414B82;" d="M302.732,98.311l-41.944,22.373h-14.562c0.42,10.822-9.63,20.02-20.122,20.02
	c-11.245,0-19.576-9.163-20.111-20.02h-32.075c-25.326,0-46.033,20.287-46.159,45.319v41.371h38.411V166.1
	c0.019-3.666,3.711-7.003,7.748-7.003h0.895v145.642h101.729V155.815l45.261-24.142L302.732,98.311z"/>
<circle style="fill:#FFB69E;" cx="225.68" cy="68.19" r="39.804"/>
<g>
</g>
<g>
</g>
<g>
</g>
<g>
</g>
<g>
</g>
<g>
</g>
<g>
</g>
<g>
</g>
<g>
</g>
<g>
</g>
<g>
</g>
<g>
</g>
<g>
</g>
<g>
</g>
<g>
</g>
</svg>
